<svg width="15" height="13" viewBox="0 0 15 13" fill="none" xmlns="http://www.w3.org/2000/svg">
<path d="M13.1693 2.63169L12.9462 2.79011L12.9593 3.06342C13.1695 7.4279 9.83047 11.6875 4.7175 11.6875C3.76132 11.6875 2.8469 11.5273 1.99656 11.2304C3.06216 11.0269 4.03923 10.5713 4.85675 9.932L5.96055 9.06887L4.55968 9.03824C3.71358 9.01975 2.96503 8.58973 2.50414 7.94068C2.74037 7.92621 2.97303 7.89023 3.19602 7.82906L3.16404 6.85704C2.23327 6.66647 1.47856 5.96991 1.20772 5.06434C1.45684 5.12771 1.71635 5.16491 1.9799 5.16991L3.68535 5.20225L2.26724 4.25432C1.5817 3.79607 1.12312 3.00507 1.12312 2.11437C1.12312 1.89831 1.15025 1.68878 1.20115 1.48766C2.78021 3.11296 4.94531 4.15826 7.3587 4.27628L8.01644 4.30844L7.87073 3.66624C7.83025 3.48782 7.81188 3.29188 7.81188 3.07562C7.81188 1.65656 8.9601 0.5 10.385 0.5C11.1195 0.5 11.7935 0.81116 12.2667 1.31532L12.4569 1.51795L12.7294 1.4634C12.8837 1.43251 13.0362 1.39662 13.1867 1.35576C13.1177 1.40677 13.046 1.45453 12.9718 1.49882L13.2911 2.42414C13.3523 2.41637 13.4132 2.40785 13.4739 2.39856C13.3753 2.47971 13.2738 2.55747 13.1693 2.63169Z" stroke="white"/>
</svg>
