<svg width="30" height="35" viewBox="0 0 30 35" fill="none" xmlns="http://www.w3.org/2000/svg">
<path d="M27.9889 32.2643H25.6807V25.8043C25.6807 25.521 25.451 25.2914 25.1677 25.2914C24.8844 25.2914 24.6548 25.521 24.6548 25.8043V32.2643H5.16247V27.708C5.16247 27.1656 5.39665 26.6497 5.80494 26.2925L6.99188 25.254C10.8982 21.8357 15.9082 19.9535 21.099 19.9535H22.7741C23.811 19.9535 24.6548 20.797 24.6548 21.8341V23.4299C24.6548 23.7132 24.8844 23.9431 25.1677 23.9431C25.451 23.9431 25.6807 23.7132 25.6807 23.4299V21.8341C25.6807 20.3716 24.5944 19.1582 23.1864 18.9572L24.7597 14.2855L25.6754 14.4775C25.783 14.5002 25.8914 14.5114 25.9993 14.5114C26.3547 14.5114 26.7013 14.3899 26.9838 14.1608C27.3518 13.862 27.5627 13.419 27.5627 12.945V11.3351C27.5627 10.279 26.7034 9.41998 25.6476 9.41998H18.6712C17.6154 9.41998 16.7563 10.279 16.7563 11.3351C16.7563 12.0718 17.2797 12.7162 18.0007 12.8676L21.0523 13.5077L19.1999 19.0087C16.2807 19.2565 13.4508 20.0712 10.8638 21.3965C10.5025 20.7009 10.1661 19.9796 9.86191 19.245C8.57697 16.1424 7.89658 12.9223 7.89364 9.9324C7.89337 9.64935 7.66373 9.41998 7.38068 9.41998C7.38068 9.41998 7.38041 9.41998 7.38014 9.41998C7.09709 9.42024 6.86745 9.65015 6.86771 9.93347C6.87065 13.0564 7.57828 16.4121 8.91396 19.6376C9.23172 20.405 9.58366 21.1586 9.96178 21.8851C9.46617 22.1685 8.98125 22.4715 8.507 22.7928C8.08216 21.9853 7.68829 21.1465 7.33421 20.2918C5.74806 16.4618 5.01587 12.4529 5.19238 8.82183C5.25219 8.82637 5.312 8.82931 5.37209 8.82931C5.97851 8.82931 6.58493 8.59833 7.04636 8.1369L7.43568 7.74784L8.25066 8.56281C8.4819 8.79406 8.78551 8.90968 9.08913 8.90968C9.39274 8.90968 9.69635 8.79406 9.92733 8.56281L10.8734 7.617C11.0975 7.39296 11.2206 7.09549 11.2206 6.77853C11.2206 6.46183 11.0975 6.16436 10.8734 5.94032L6.02123 1.08841C5.79746 0.864372 5.49973 0.741005 5.18303 0.741005C4.86633 0.741005 4.5686 0.864372 4.34456 1.08814L3.39874 2.03423C2.93625 2.49645 2.93625 3.24867 3.39874 3.7109L4.6981 5.01026C4.51973 5.74299 4.38461 6.50162 4.29249 7.28107L1.62273 4.61132C1.23795 4.22653 1.02592 3.71464 1.02592 3.17043V0.512962C1.02592 0.229645 0.79628 0 0.512962 0C0.229645 0 0 0.229645 0 0.512962V3.17043C0 3.98888 0.318832 4.75819 0.897484 5.33684L3.69755 8.1369C3.84575 8.2851 4.00917 8.40927 4.18274 8.50994C3.95096 12.3632 4.70612 16.6268 6.38626 20.6846C6.77025 21.6114 7.1991 22.5207 7.66346 23.3936C7.2023 23.7381 6.75236 24.1004 6.3163 24.482L5.12936 25.5205C4.49837 26.0724 4.13654 26.8698 4.13654 27.708V32.2643H1.82835C1.23447 32.2643 0.751152 32.7476 0.751152 33.3415V33.9228C0.751152 34.5169 1.23447 35 1.82835 35H27.9889C28.583 35 29.0661 34.5169 29.0661 33.9228V33.3415C29.0661 32.7476 28.583 32.2643 27.9889 32.2643ZM4.12399 2.75948L5.07008 1.81366C5.1088 1.77494 5.15285 1.76693 5.18303 1.76693C5.2132 1.76693 5.25726 1.77494 5.29598 1.81366L10.1479 6.66557C10.1866 6.70429 10.1946 6.74835 10.1946 6.77853C10.1946 6.8087 10.1866 6.85276 10.1479 6.89148L9.20208 7.83756C9.13986 7.89978 9.03839 7.89978 8.97617 7.83756L4.12426 2.98538C4.06178 2.92316 4.06178 2.82169 4.12399 2.75948ZM6.71017 7.02232L6.32111 7.41138C6.03271 7.69978 5.64499 7.82822 5.26741 7.79884C5.3323 7.13955 5.42789 6.49441 5.55607 5.86823L6.71017 7.02232ZM17.7822 11.3351C17.7822 10.8448 18.1809 10.4462 18.6715 10.4462H25.6476C26.1378 10.4462 26.5368 10.8448 26.5368 11.3351V12.9453C26.5368 13.1087 26.4639 13.2615 26.3371 13.3645C26.2102 13.4673 26.0457 13.5074 25.8858 13.4737L18.2114 11.8636C17.9628 11.8115 17.7822 11.5893 17.7822 11.3351ZM22.0633 13.7199L23.7485 14.0735L22.114 18.9275H21.099C20.8336 18.9275 20.569 18.9337 20.3046 18.943L22.0633 13.7199ZM28.0402 33.9228C28.0402 33.9511 28.0172 33.9741 27.9889 33.9741H1.82835C1.80004 33.9741 1.77708 33.9511 1.77708 33.9228V33.3415C1.77708 33.3132 1.80004 33.2902 1.82835 33.2902H25.1672H25.1677H25.1685H27.9892C28.0172 33.2902 28.0404 33.3132 28.0404 33.3415V33.9228H28.0402Z" fill="white"/>
<path d="M14.4153 28.4562C14.1331 28.4829 13.9261 28.7331 13.9531 29.0154C13.9782 29.2808 14.2017 29.4798 14.4631 29.4798C14.4794 29.4798 14.4957 29.479 14.5123 29.4776C16.4341 29.295 17.8835 27.6997 17.8835 25.767C17.8835 23.7117 16.2114 22.0395 14.156 22.0395C12.101 22.0395 10.4286 23.7117 10.4286 25.767C10.4286 26.6962 10.7738 27.5801 11.3875 28.2605L11.1074 28.5914C10.9933 28.5564 10.8726 28.5371 10.7471 28.5371H8.08673C7.4082 28.5371 6.85599 29.0894 6.85599 29.7679V30.5887C6.85599 31.2673 7.4082 31.8192 8.08673 31.8192H10.7471C11.4259 31.8192 11.9779 31.2673 11.9779 30.5887V29.7679C11.9779 29.5922 11.9402 29.4253 11.8737 29.2739L12.4799 28.558C12.4799 28.558 12.4799 28.5577 12.4802 28.5577C12.4802 28.5577 12.4802 28.5577 12.4802 28.5574L14.5619 26.0984C14.7451 25.8821 14.7181 25.5584 14.5018 25.3753C14.2855 25.1923 13.9619 25.2193 13.779 25.4353L12.0585 27.4677C11.6708 26.9902 11.4548 26.3929 11.4548 25.7667C11.4548 24.2772 12.6665 23.0652 14.1563 23.0652C15.6458 23.0652 16.8578 24.2772 16.8578 25.7667C16.8576 27.1678 15.8076 28.3241 14.4153 28.4562ZM10.952 30.5887C10.952 30.7017 10.8601 30.7935 10.7471 30.7935H8.08673C7.97377 30.7935 7.88191 30.7017 7.88191 30.5887V29.7679C7.88191 29.6549 7.97377 29.5631 8.08673 29.5631H10.7471C10.8035 29.5631 10.8545 29.586 10.8916 29.6229C10.8916 29.6232 10.8919 29.6232 10.8921 29.6234C10.929 29.6605 10.952 29.7115 10.952 29.7679V30.5887Z" fill="white"/>
</svg>
