<svg width="34" height="34" viewBox="0 0 34 34" fill="none" xmlns="http://www.w3.org/2000/svg">
<path d="M20.9664 19.8324H20.3431C20.1087 19.8329 19.8989 19.6866 19.8184 19.4664C19.7493 19.285 19.675 19.1077 19.5951 18.932C19.4958 18.7184 19.5412 18.4654 19.7085 18.2996L20.1527 17.8548C20.8122 17.1895 20.811 16.1165 20.1499 15.4527L18.5485 13.8513C17.8839 13.1906 16.8105 13.1906 16.1459 13.8513L15.7016 14.295C15.5354 14.4617 15.2829 14.507 15.0692 14.4084C14.8935 14.3285 14.7162 14.2542 14.5343 14.1817C14.3129 14.1017 14.1657 13.8912 14.1665 13.6558V13.0325C14.1665 12.0936 13.4054 11.3325 12.4665 11.3325H10.1999C9.26101 11.3325 8.49991 12.0936 8.49991 13.0325V13.6558C8.50034 13.8903 8.35407 14.1 8.13385 14.1806C7.95252 14.2497 7.77515 14.3239 7.59949 14.4038C7.38579 14.5026 7.1332 14.4574 6.96709 14.2905L6.52227 13.8462C5.85771 13.1859 4.78474 13.1859 4.12019 13.8462L2.51881 15.4527C1.85808 16.1173 1.85808 17.1907 2.51881 17.8554L2.9625 18.2996C3.12981 18.4654 3.17514 18.7184 3.07583 18.932C2.99594 19.1077 2.9217 19.285 2.852 19.4669C2.7709 19.6884 2.55918 19.8348 2.32331 19.8324H1.69998C0.761096 19.8324 0 20.5935 0 21.5324V23.7991C0 24.7379 0.761096 25.499 1.69998 25.499H2.32331C2.55777 25.4986 2.7675 25.6449 2.84804 25.8651C2.91717 26.0464 2.9914 26.2238 3.0713 26.3995C3.17061 26.6131 3.12528 26.866 2.95797 27.0319L2.51371 27.4767C1.85341 28.1412 1.85341 29.2142 2.51371 29.8788L4.11509 31.4801C4.77971 32.1409 5.85311 32.1409 6.51773 31.4801L6.96199 31.0364C7.12817 30.8698 7.38069 30.8245 7.59439 30.9231C7.77005 31.003 7.94742 31.0772 8.12932 31.1498C8.3518 31.2288 8.50034 31.4396 8.49991 31.6756V32.299C8.49991 33.2379 9.26101 33.999 10.1999 33.999H12.4665C13.4054 33.999 14.1665 33.2379 14.1665 32.299V31.6756C14.1661 31.4412 14.3124 31.2314 14.5326 31.1509C14.7139 31.0818 14.8913 31.0075 15.0669 30.9277C15.2806 30.8288 15.5332 30.8741 15.6993 31.041L16.1442 31.4852C16.8096 32.1445 17.8823 32.1432 18.5462 31.4824L20.1476 29.881C20.8083 29.2164 20.8083 28.143 20.1476 27.4784L19.7039 27.0341C19.5366 26.8683 19.4913 26.6154 19.5906 26.4017C19.6705 26.2261 19.7447 26.0487 19.8173 25.8668C19.8972 25.6454 20.1077 25.4982 20.3431 25.499H20.9664C21.9053 25.499 22.6664 24.7379 22.6664 23.7991V21.5324C22.6664 20.5935 21.9053 19.8324 20.9664 19.8324ZM21.5331 23.7991C21.5331 24.112 21.2794 24.3657 20.9664 24.3657H20.3431C19.6387 24.3683 19.0083 24.8037 18.7565 25.4616C18.6964 25.6203 18.6315 25.7765 18.5615 25.9303C18.2702 26.5734 18.4054 27.3296 18.9015 27.832L19.3447 28.2757C19.5661 28.4968 19.5663 28.8557 19.3451 29.0771C19.3449 29.0772 19.3448 29.0774 19.3447 29.0775L17.7433 30.6789C17.522 30.9001 17.1633 30.9001 16.942 30.6789L16.4978 30.2352C15.9956 29.7386 15.2391 29.6034 14.596 29.8952C14.4425 29.9649 14.2861 30.0301 14.1286 30.0901C13.4712 30.3419 13.036 30.9717 13.0332 31.6756V32.299C13.0332 32.6119 12.7795 32.8656 12.4665 32.8656H10.1999C9.88696 32.8656 9.63323 32.6119 9.63323 32.299V31.6756C9.63061 30.9712 9.1952 30.3408 8.53731 30.089C8.37865 30.0289 8.22246 29.964 8.06868 29.8941C7.42552 29.6029 6.66938 29.7381 6.16697 30.2341L5.72327 30.6772C5.50213 30.8986 5.1433 30.8988 4.92187 30.6776C4.92173 30.6775 4.92159 30.6773 4.92145 30.6772L3.32007 29.0775C3.09886 28.8562 3.09886 28.4975 3.32007 28.2762L3.76376 27.832C4.25994 27.3296 4.39509 26.5734 4.10376 25.9303C4.03406 25.7767 3.96889 25.6203 3.90883 25.4628C3.65765 24.8047 3.02767 24.3688 2.32331 24.3657H1.69998C1.38704 24.3657 1.13332 24.112 1.13332 23.7991V21.5324C1.13332 21.2195 1.38704 20.9658 1.69998 20.9658H2.32331C3.02774 20.9631 3.65815 20.5277 3.90996 19.8698C3.97003 19.7112 4.03498 19.555 4.10489 19.4012C4.39622 18.758 4.26101 18.0018 3.76489 17.4995L3.3195 17.0558C3.09808 16.8347 3.09786 16.4758 3.31907 16.2544C3.31922 16.2543 3.31936 16.2541 3.3195 16.254L4.92088 14.6526C5.14216 14.4314 5.50086 14.4314 5.72214 14.6526L6.1664 15.0963C6.66853 15.5929 7.42503 15.7281 8.06812 15.4363C8.22168 15.3666 8.37808 15.3014 8.53561 15.2413C9.19393 14.9904 9.63005 14.3603 9.63323 13.6558V13.0325C9.63323 12.7196 9.88696 12.4658 10.1999 12.4658H12.4665C12.7795 12.4658 13.0332 12.7196 13.0332 13.0325V13.6558C13.0358 14.3603 13.4712 14.9907 14.1291 15.2425C14.2878 15.3025 14.444 15.3675 14.5977 15.4374C15.2408 15.7292 15.9973 15.594 16.4995 15.0974L16.9432 14.6543C17.1653 14.4346 17.5229 14.4346 17.745 14.6543L19.3464 16.2557C19.5676 16.4769 19.5676 16.8356 19.3464 17.0569L18.9027 17.5012C18.4066 18.0035 18.2713 18.7597 18.5627 19.4029C18.6324 19.5565 18.6975 19.7129 18.7576 19.8704C19.0093 20.5278 19.6392 20.9629 20.3431 20.9658H20.9664C21.2794 20.9658 21.5331 21.2195 21.5331 21.5324V23.7991Z" fill="white"/>
<path d="M16.4203 22.4387C16.4146 22.3027 16.405 22.1673 16.3886 22.0324C16.3704 21.8874 16.3489 21.7435 16.3189 21.6024C16.299 21.51 16.273 21.4188 16.248 21.327C16.2163 21.2102 16.1806 21.0952 16.1409 20.9819C16.1132 20.9031 16.0843 20.8249 16.0548 20.7473C15.9818 20.5658 15.8984 20.3886 15.8049 20.2169C15.7975 20.2038 15.793 20.1897 15.7856 20.1766C15.6382 19.9143 15.4675 19.6656 15.2756 19.4337C15.2592 19.4133 15.2405 19.3941 15.2235 19.3742C15.1453 19.2819 15.0648 19.1923 14.9804 19.1068C14.9362 19.0609 14.8897 19.0178 14.8433 18.9736C14.7866 18.9209 14.7299 18.8688 14.6733 18.8189C14.6045 18.7592 14.5344 18.7014 14.463 18.6455L14.3701 18.5764C13.4933 17.9196 12.4272 17.5649 11.3317 17.5655C11.275 17.5655 11.2183 17.574 11.1617 17.5762C11.041 17.5796 10.9197 17.5864 10.7979 17.5989C10.7338 17.6057 10.6693 17.6131 10.6052 17.6221C10.4205 17.6464 10.2372 17.6807 10.0561 17.7247C7.32758 18.4298 5.68724 21.2133 6.39231 23.9419C6.85697 25.7399 8.26172 27.1435 10.0601 27.6067C10.0692 27.6067 10.0788 27.6095 10.0884 27.6118C10.2841 27.6606 10.4824 27.6985 10.6823 27.7251C10.8143 27.7416 10.9463 27.745 11.0789 27.7512C11.1673 27.7557 11.2489 27.7688 11.3413 27.7688C11.5028 27.7688 11.6705 27.758 11.8417 27.741C11.8598 27.741 11.8779 27.7359 11.8983 27.7336C12.036 27.7183 12.1754 27.6979 12.3177 27.6696C12.3743 27.6588 12.427 27.6447 12.4814 27.6322C12.5812 27.609 12.6803 27.5846 12.7823 27.5546C12.8617 27.5308 12.9387 27.503 13.0164 27.4758C13.094 27.4486 13.1745 27.4191 13.2549 27.3885C13.3354 27.3579 13.4028 27.3228 13.4759 27.2888C13.5711 27.2452 13.6658 27.2021 13.7593 27.1511H13.7627C14.2915 26.868 14.7799 26.5152 15.215 26.1022C15.3325 25.9926 15.4347 25.8675 15.5187 25.7305C15.961 25.0214 16.2516 24.2285 16.3721 23.4015C16.388 23.2921 16.4022 23.1828 16.4107 23.0711C16.4186 22.9686 16.4243 22.8666 16.4265 22.7646C16.4265 22.7323 16.4311 22.7017 16.4311 22.6694C16.4316 22.5895 16.4237 22.5158 16.4203 22.4387ZM15.2909 22.8099C15.2909 22.8569 15.287 22.904 15.2841 22.9504C15.2739 23.0876 15.2564 23.2247 15.2331 23.3624C15.0213 24.5406 14.2899 25.5605 13.2419 26.139C13.1716 26.1759 13.1025 26.2104 13.0334 26.2422L12.9863 26.2648C12.6571 26.4143 12.3096 26.5195 11.9527 26.5776C11.9278 26.5816 11.9023 26.5861 11.8768 26.5895C11.806 26.5997 11.7363 26.6082 11.6671 26.6145C11.5759 26.6224 11.4841 26.6269 11.3906 26.6286C11.3509 26.6286 11.3118 26.6286 11.2722 26.6286C11.1381 26.6271 11.0042 26.6188 10.871 26.6037L10.803 26.5958C10.6472 26.5754 10.4926 26.5463 10.34 26.5085C8.21773 25.9653 6.93765 23.8045 7.48079 21.6822C7.8397 20.2798 8.93406 19.1843 10.3361 18.824V18.8234C10.6616 18.7414 10.9959 18.6994 11.3317 18.6988C11.4937 18.6997 11.6555 18.7107 11.8162 18.7316C11.8592 18.7367 11.9017 18.7447 11.9442 18.7509C12.0666 18.7702 12.1879 18.7945 12.3075 18.8251C12.3466 18.8353 12.3857 18.8444 12.4242 18.8552C12.7255 18.9422 13.0156 19.0643 13.2884 19.219C13.332 19.2445 13.3745 19.2711 13.4176 19.2977C13.5071 19.3544 13.5938 19.4111 13.6794 19.4757C13.7253 19.5091 13.7717 19.542 13.8159 19.5777C13.9271 19.6665 14.0336 19.7611 14.1349 19.861C14.1752 19.9018 14.212 19.9466 14.2511 19.9891C14.3163 20.0599 14.3797 20.1324 14.4404 20.2089C14.4823 20.2616 14.5225 20.316 14.5622 20.371C14.6189 20.4526 14.6755 20.5376 14.7265 20.6237C14.7549 20.6708 14.7832 20.7167 14.8121 20.7648C14.8852 20.8993 14.9503 21.038 15.007 21.1802C15.0297 21.2369 15.049 21.2935 15.0694 21.3502C15.1062 21.4545 15.1379 21.5599 15.1657 21.6664C15.1799 21.7231 15.1957 21.7735 15.2076 21.8284C15.2407 21.9816 15.2647 22.1366 15.2796 22.2925C15.283 22.3339 15.283 22.3758 15.2858 22.4172C15.2938 22.5475 15.296 22.6784 15.2909 22.8099Z" fill="white"/>
<path d="M32.3007 11.8999H30.5186C30.2809 11.9023 30.0683 11.7526 29.9904 11.5281C29.8147 11.0018 29.602 10.4884 29.3541 9.99193C29.2488 9.77752 29.2927 9.51976 29.4629 9.35217L30.7265 8.08682C31.3898 7.42304 31.3898 6.34738 30.7265 5.68361L28.3171 3.27813C27.6533 2.61486 26.5776 2.61486 25.9139 3.27813L24.6508 4.54065C24.4834 4.71079 24.226 4.75485 24.0116 4.65002C23.5151 4.40076 23.0015 4.18699 22.4748 4.01026C22.2494 3.93312 22.0987 3.72034 22.1008 3.48213V1.69998C22.1008 0.761096 21.3397 0 20.4008 0H17.0009C16.062 0 15.3009 0.761096 15.3009 1.69998V3.48213C15.3033 3.71977 15.1537 3.93234 14.9291 4.01026C14.4027 4.18691 13.8893 4.40055 13.3929 4.64945C13.1785 4.75506 12.9206 4.71122 12.7532 4.54065L11.4878 3.277C10.8233 2.61564 9.74916 2.61564 9.08461 3.277L6.6797 5.68191C6.01607 6.34575 6.01607 7.42184 6.6797 8.08568L8.53778 9.94716C8.76253 10.1649 9.1213 10.1592 9.33904 9.93441C9.55147 9.71512 9.55196 9.3669 9.34017 9.14704L7.48096 7.28612C7.25975 7.06484 7.25975 6.70615 7.48096 6.48487L9.88587 4.07996C10.1071 3.85875 10.4658 3.85875 10.6871 4.07996L11.953 5.34361C12.4652 5.85885 13.2501 5.98762 13.9001 5.66321C14.349 5.43846 14.8131 5.24551 15.289 5.08578C15.9759 4.85324 16.4372 4.20739 16.4342 3.48213V1.69998C16.4342 1.38704 16.6879 1.13332 17.0009 1.13332H20.4008C20.7138 1.13332 20.9675 1.38704 20.9675 1.69998V3.48213C20.9646 4.20724 21.4258 4.85288 22.1127 5.08521C22.5888 5.24501 23.0532 5.4381 23.5022 5.66321C24.1523 5.98592 24.9361 5.85701 25.4486 5.34304L26.7146 4.07996C26.9358 3.85875 27.2945 3.85875 27.5158 4.07996L29.9207 6.48543C30.1416 6.70664 30.1416 7.06491 29.9207 7.28612L28.6571 8.55204C28.1423 9.06452 28.0136 9.84899 28.3375 10.4991C28.5622 10.948 28.7552 11.4121 28.9149 11.888C29.1473 12.5751 29.7932 13.0363 30.5186 13.0332H32.3007C32.6136 13.0332 32.8674 13.2869 32.8674 13.5999V16.9998C32.8674 17.3128 32.6136 17.5665 32.3007 17.5665H30.5186C29.7934 17.5636 29.1478 18.0248 28.9155 18.7117C28.7557 19.1878 28.5626 19.6521 28.3375 20.1012C28.0142 20.7513 28.1432 21.5353 28.6576 22.0476L29.9213 23.3136C30.1425 23.5348 30.1425 23.8935 29.9213 24.1148L27.5153 26.5197C27.294 26.7406 26.9358 26.7406 26.7146 26.5197L24.8525 24.6616C24.6348 24.4368 24.276 24.4312 24.0513 24.6489C23.8264 24.8666 23.8208 25.2254 24.0385 25.4502C24.043 25.4548 24.0477 25.4595 24.0524 25.464L25.9139 27.3221C26.5776 27.9854 27.6533 27.9854 28.3171 27.3221L30.722 24.9178C31.3856 24.2539 31.3856 23.1778 30.722 22.514L29.46 21.2498C29.29 21.0823 29.246 20.825 29.3507 20.6106C29.5999 20.114 29.8137 19.6005 29.9904 19.0738C30.0676 18.8484 30.2803 18.6977 30.5186 18.6998H32.3007C33.2396 18.6998 34.0007 17.9387 34.0007 16.9998V13.5999C34.0007 12.661 33.2396 11.8999 32.3007 11.8999Z" fill="white"/>
<path d="M23.909 10.0911C21.0305 7.21859 16.37 7.21859 13.4915 10.0911C13.2741 10.3162 13.2803 10.6749 13.5055 10.8923C13.725 11.1044 14.0732 11.1044 14.2928 10.8923C16.7106 8.4418 20.6572 8.41538 23.1077 10.8332C25.5583 13.2511 25.5847 17.1977 23.1668 19.6482C23.1473 19.6681 23.1276 19.6877 23.1077 19.7073C22.8826 19.9248 22.8764 20.2834 23.0939 20.5086C23.3113 20.7337 23.67 20.7399 23.8951 20.5224C23.8998 20.5179 23.9045 20.5132 23.909 20.5086C26.7815 17.6301 26.7815 12.9696 23.909 10.0911Z" fill="white"/>
</svg>
