<svg width="29" height="35" viewBox="0 0 29 35" fill="none" xmlns="http://www.w3.org/2000/svg">
<path d="M2.74805 16.3827C2.75844 16.7394 2.77457 17.0974 2.79672 17.4534C1.90524 18.0901 1.36719 19.1192 1.36719 20.2344C1.36719 21.772 2.36756 23.0846 3.80263 23.5098C5.27051 28.7715 8.89827 35 14.3555 35C16.4672 35 18.5438 33.9982 20.361 32.1029C20.6222 31.8303 20.6131 31.3976 20.3406 31.1363C20.0681 30.8751 19.6353 30.8842 19.3741 31.1567C17.821 32.7766 16.0856 33.6328 14.3555 33.6328C9.50797 33.6328 6.25187 27.455 5.01621 22.7612C4.94717 22.499 4.72972 22.3024 4.46188 22.26C3.4609 22.1017 2.73438 21.2499 2.73438 20.2344C2.73438 19.607 3.01861 19.0255 3.49501 18.6403L5.47928 20.017C5.64218 23.1297 7.87753 25.6666 11.0288 26.2515C11.4646 26.3323 11.9001 26.2997 12.3047 26.1724V28.4375C12.3047 28.815 12.6107 29.1211 12.9883 29.1211H14.3555C14.733 29.1211 15.0391 28.815 15.0391 28.4375C15.0391 28.06 14.733 27.7539 14.3555 27.7539H13.6719V25.2129C13.7117 25.1613 13.7504 25.1086 13.7869 25.0541C13.9156 24.8609 14.1227 24.7501 14.3551 24.75H14.3553C14.5878 24.75 14.7953 24.8609 14.9244 25.0545C15.5408 25.9781 16.6229 26.448 17.6812 26.2514C20.8329 25.6645 23.0686 23.1278 23.2317 20.017L25.216 18.6403C25.6923 19.0255 25.9766 19.607 25.9766 20.2344C25.9766 21.2499 25.25 22.1017 24.249 22.26C23.9812 22.3024 23.7637 22.499 23.6947 22.7612C23.3788 23.961 22.985 25.1141 22.5242 26.1885C22.3754 26.5355 22.536 26.9374 22.883 27.0862C23.2299 27.2351 23.6318 27.0744 23.7807 26.7274C24.2163 25.7117 24.5949 24.631 24.9081 23.5097C26.3434 23.0848 27.3438 21.7721 27.3438 20.2344C27.3438 19.1192 26.8057 18.0901 25.9142 17.4534C25.9364 17.0974 25.9525 16.7394 25.9629 16.3827C27.6657 15.445 28.7109 14.0306 28.7109 12.0312C28.7109 7.04956 22.209 0 14.3555 0C10.5046 0 6.83751 1.69627 4.07627 4.29393C1.97935 6.26978 0 9.22551 0 12.0312C0 14.0269 1.04152 15.4429 2.74805 16.3827ZM2.28525 9.98047C4.59642 9.98047 6.76915 10.8804 8.40335 12.5146C8.59893 12.7101 8.8928 12.7686 9.14833 12.6628C9.40379 12.5569 9.57031 12.3077 9.57031 12.0312C9.57031 9.06814 8.10517 6.33466 5.69099 4.68891C6.43296 4.06834 7.22654 3.52317 8.06155 3.06065C10.4104 4.99775 11.9266 7.79974 12.2414 10.8157C12.3545 11.8984 13.2634 12.7148 14.3555 12.7148C15.4476 12.7148 16.3564 11.8984 16.4696 10.8157C16.7843 7.7998 18.3006 4.99782 20.6495 3.06072C21.4845 3.52317 22.278 4.06834 23.02 4.68897C20.6058 6.33473 19.1406 9.06821 19.1406 12.0312C19.1406 12.3077 19.3071 12.557 19.5626 12.6628C19.8185 12.7688 20.1124 12.7097 20.3076 12.5147C21.9418 10.8804 24.1145 9.98047 26.4257 9.98047H26.9442C27.2092 10.7112 27.3438 11.3995 27.3438 12.0312C27.3438 12.2691 27.3232 12.4975 27.2838 12.7148H26.4257C24.8451 12.7148 23.3589 13.3301 22.2407 14.4477L20.1427 16.5456C18.5436 16.7276 16.6476 16.8164 14.3555 16.8164C12.0634 16.8164 10.1674 16.7276 8.5683 16.5456L6.47008 14.4475C5.35199 13.3301 3.86579 12.7148 2.28525 12.7148H1.42721C1.38776 12.4975 1.36719 12.2691 1.36719 12.0312C1.36719 11.3995 1.50179 10.7113 1.76682 9.98047H2.28525ZM12.0433 1.5925L13.7867 4.20731C13.9135 4.39749 14.1269 4.51172 14.3555 4.51172C14.584 4.51172 14.7974 4.39749 14.9242 4.20731L16.6677 1.5925C17.5611 1.76572 18.4471 2.03861 19.3148 2.4081C16.9561 4.54904 15.4405 7.50552 15.1097 10.6737C15.0696 11.058 14.7453 11.3477 14.3555 11.3477C13.9656 11.3477 13.6413 11.0579 13.6012 10.6738C13.2705 7.50552 11.7549 4.54904 9.39613 2.4081C10.2638 2.03868 11.1496 1.76579 12.0433 1.5925ZM24.5444 17.4422L22.289 19.007C19.3878 19.5504 16.3659 19.5508 14.3555 19.5508C12.345 19.5508 9.32312 19.5504 6.42195 19.007L4.16657 17.4422C4.15707 17.2955 4.14873 17.1485 4.14128 17.0012C5.24228 17.3934 6.57193 17.6815 8.17045 17.8757C9.8726 18.0828 11.8958 18.1835 14.3555 18.1835C17.4547 18.1835 21.6413 18.0442 24.5696 17.0012C24.5622 17.1486 24.5538 17.2955 24.5444 17.4422ZM2.04094 14.082H2.28525C3.50075 14.082 4.64379 14.5553 5.50355 15.4144L6.2678 16.1787C4.79801 15.861 2.97644 15.2698 2.04094 14.082ZM17.4313 24.9073C16.9196 25.0021 16.3691 24.7564 16.0617 24.2956C15.6803 23.7241 15.0424 23.3828 14.3553 23.3828C14.3551 23.3828 14.3549 23.3828 14.3547 23.3828C13.6676 23.383 13.03 23.7244 12.6498 24.2951C12.344 24.7523 11.8067 25.0053 11.2784 24.9073C8.94428 24.474 7.2383 22.7062 6.89814 20.4768C9.6855 20.918 12.4592 20.918 14.3555 20.918C16.2518 20.918 19.0254 20.918 21.8128 20.4768C21.4724 22.7047 19.7658 24.4725 17.4313 24.9073ZM22.4431 16.1787L23.2072 15.4146C24.0671 14.5553 25.2101 14.0813 26.4257 14.0813H26.67C25.7354 15.2681 23.9163 15.8603 22.4431 16.1787ZM26.319 8.61533C24.273 8.63659 22.3242 9.26604 20.6814 10.4202C21.1115 8.45223 22.3193 6.72458 24.0598 5.64314C24.9782 6.56701 25.7537 7.58885 26.319 8.61533ZM15.1562 1.39487L14.3555 2.59588L13.5547 1.39487C13.8222 1.37683 14.0896 1.36719 14.3555 1.36719C14.6213 1.36719 14.8887 1.37683 15.1562 1.39487ZM4.65117 5.64314C6.3916 6.72458 7.59944 8.45223 8.02949 10.4202C6.38675 9.26604 4.43796 8.63659 2.39196 8.61533C2.95716 7.58892 3.7327 6.56708 4.65117 5.64314Z" fill="white"/>
<path d="M12.9883 30.4883C12.6107 30.4883 12.3047 30.7943 12.3047 31.1719C12.3047 31.5494 12.6107 31.8555 12.9883 31.8555H15.7227C16.1002 31.8555 16.4062 31.5494 16.4062 31.1719C16.4062 30.7943 16.1002 30.4883 15.7227 30.4883H12.9883Z" fill="white"/>
<path d="M21.7383 29.873C22.1158 29.873 22.4219 29.567 22.4219 29.1895C22.4219 28.8119 22.1158 28.5059 21.7383 28.5059C21.3607 28.5059 21.0547 28.8119 21.0547 29.1895C21.0547 29.567 21.3607 29.873 21.7383 29.873Z" fill="white"/>
</svg>
