<svg width="31" height="35" viewBox="0 0 31 35" fill="none" xmlns="http://www.w3.org/2000/svg">
<path d="M0.583333 35H27.4167C27.4933 35 27.5691 34.9849 27.6399 34.9556C27.7107 34.9263 27.775 34.8833 27.8291 34.8292C27.8833 34.775 27.9263 34.7107 27.9556 34.6399C27.9849 34.5691 28 34.4933 28 34.4167V32.6667C27.9998 32.6202 27.9941 32.574 27.983 32.5289L27.9835 32.5288L27.8941 32.1614C28.8407 31.4841 29.5631 30.5392 29.9684 29.4481C30.3736 28.3569 30.4432 27.1695 30.1681 26.0385C29.8929 24.9076 29.2858 23.8847 28.4247 23.1016C27.5635 22.3185 26.4878 21.811 25.3359 21.6442L22.8885 11.5826C23.5372 11.439 24.1312 11.1124 24.6001 10.6415L26.4209 8.82076C26.6849 8.55664 26.8332 8.19846 26.8332 7.82499C26.8332 7.45152 26.6848 7.09336 26.4207 6.82927C26.1566 6.56519 25.7985 6.41682 25.425 6.4168C25.0515 6.41677 24.6934 6.5651 24.4292 6.82915L22.5084 8.75001H20.6809C20.3883 8.37052 19.9663 8.11204 19.4953 8.02391C19.0243 7.93579 18.5374 8.02419 18.1274 8.27224L17.3373 8.75001H14.825L13.0635 6.98856C13.6394 6.93076 14.1733 6.66128 14.5619 6.23232C14.9504 5.80336 15.1659 5.24546 15.1667 4.66668V2.91668C15.1667 2.54236 15.0767 2.17353 14.9042 1.84132C14.7317 1.50911 14.4818 1.22328 14.1757 1.00796C13.8695 0.792644 13.516 0.654165 13.145 0.604215C12.774 0.554265 12.3965 0.594311 12.0442 0.720972C11.5657 0.257076 10.9249 -0.00161411 10.2584 1.70234e-05H10.2063C9.65997 -0.00184704 9.12406 0.14941 8.65933 0.436636C8.19459 0.723861 7.81964 1.13556 7.57699 1.62505C7.45694 1.86705 7.28284 2.0782 7.06815 2.24217C6.85346 2.40614 6.60393 2.51854 6.33887 2.57068L4.55227 2.928C4.42794 2.95287 4.3151 3.01756 4.23082 3.11228C4.14655 3.20701 4.09543 3.32662 4.08521 3.45299C4.07499 3.57937 4.10622 3.70563 4.17418 3.81267C4.24214 3.91971 4.34312 4.0017 4.46183 4.04621L6.39754 4.7721C6.89547 4.95868 7.42293 5.05407 7.95467 5.05369C8.86278 5.05248 9.74957 4.77839 10.5 4.26699V4.66668C10.5002 4.77351 10.5077 4.8802 10.5224 4.986L10.253 5.25538C9.71305 5.29165 9.20455 5.52254 8.82187 5.90522C8.43919 6.2879 8.20829 6.7964 8.17203 7.33638L4.70782 10.8006C3.98338 11.5244 3.55451 12.4922 3.50485 13.5151C3.45518 14.538 3.78827 15.5427 4.43917 16.3333H2.91667C2.84006 16.3333 2.76421 16.3484 2.69343 16.3777C2.62266 16.4071 2.55835 16.45 2.50418 16.5042C2.45001 16.5584 2.40705 16.6227 2.37773 16.6934C2.34842 16.7642 2.33333 16.8401 2.33333 16.9167V19.25C2.33333 19.3266 2.34842 19.4025 2.37773 19.4732C2.40705 19.544 2.45001 19.6083 2.50418 19.6625C2.55835 19.7167 2.62266 19.7596 2.69343 19.7889C2.76421 19.8183 2.84006 19.8333 2.91667 19.8333H4.66666V22.0291C3.71903 21.9817 2.78108 22.2387 1.99005 22.7627C1.19903 23.2867 0.596454 24.05 0.270496 24.9411C-0.0554615 25.8322 -0.0876912 26.8042 0.178523 27.7149C0.444737 28.6256 0.995422 29.4272 1.75 30.0024V32.0833H0.583333C0.506728 32.0833 0.430873 32.0984 0.360098 32.1277C0.289324 32.157 0.225017 32.2 0.170849 32.2542C0.116681 32.3083 0.0737135 32.3727 0.0443991 32.4434C0.0150846 32.5142 -2.20225e-06 32.5901 2.41117e-10 32.6667V34.4167C-2.20225e-06 34.4933 0.0150846 34.5691 0.0443991 34.6399C0.0737135 34.7107 0.116681 34.775 0.170849 34.8292C0.225017 34.8833 0.289324 34.9263 0.360098 34.9556C0.430873 34.9849 0.506728 35 0.583333 35ZM5.6105 30.9167H14.2228L14.8062 32.0833H5.02717L5.6105 30.9167ZM9.91666 19.8333V19.8281L10.2136 20.0014L8.16666 22.6332V19.8333H9.91666ZM11.5438 20.1915C11.5948 20.1259 11.6313 20.0501 11.6506 19.9692C11.67 19.8884 11.6719 19.8043 11.6561 19.7227C11.6403 19.6411 11.6073 19.5637 11.5592 19.4959C11.5111 19.4281 11.4491 19.3714 11.3772 19.3295L9.45191 18.2064L11.3504 16.3079L12.9786 17.5743C13.2747 17.8046 13.5185 18.0952 13.6937 18.4269C13.8689 18.7586 13.9716 19.1238 13.9949 19.4982C14.0182 19.8726 13.9616 20.2476 13.8289 20.5985C13.6962 20.9494 13.4904 21.268 13.2251 21.5332L9.72495 25.0334L8.03993 24.6964L11.5438 20.1915ZM8.82078 9.0624L11.1334 11.375L10.2083 12.3001L7.53327 9.62501L8.50029 8.65799C8.59125 8.80464 8.69879 8.94034 8.82078 9.0624ZM19.3968 11.7569L21.2195 19.25H19.25C18.816 19.2501 18.3842 19.3109 17.9672 19.4307L16.4416 15.6168C16.1838 14.966 15.7358 14.408 15.1561 14.0155C14.5765 13.6231 13.892 13.4144 13.192 13.4167H10.7416L12.0059 12.1524C12.4499 12.4555 12.9516 12.6639 13.4798 12.7644C14.0079 12.8649 14.5511 12.8554 15.0754 12.7366L19.3968 11.7569ZM22.216 23.3467L24.3401 32.0793C23.3223 32.0445 22.3438 31.6777 21.5539 31.0348C20.7641 30.3919 20.2062 29.5083 19.9655 28.5187C19.7248 27.5292 19.8145 26.488 20.2208 25.5542C20.6271 24.6204 21.3278 23.8451 22.216 23.3467ZM16.939 24.5V24.8637L15.75 24.5817V23.9167C15.751 22.9887 16.1201 22.0991 16.7763 21.443C17.4324 20.7868 18.3221 20.4177 19.25 20.4167H21.5033L21.787 21.5833H19.8556C19.0824 21.5842 18.341 21.8918 17.7942 22.4386C17.2474 22.9854 16.9399 23.7267 16.939 24.5ZM13.192 14.5833C13.6587 14.5818 14.115 14.721 14.5014 14.9826C14.8879 15.2442 15.1865 15.6162 15.3584 16.0501L16.8945 19.8906C16.4185 20.17 15.9955 20.531 15.6447 20.9571L15.1305 20.1858C15.1544 20.0124 15.1665 19.8376 15.1667 19.6625C15.1685 19.0817 15.0367 18.5082 14.7815 17.9864C14.5263 17.4646 14.1545 17.0085 13.6949 16.6534L12.8333 15.9832V14.5833H13.192ZM14.0501 22.3582C14.2844 22.1239 14.4873 21.8603 14.6537 21.5739L14.9729 22.0527C14.7156 22.6404 14.5829 23.2751 14.5833 23.9167V24.3049L12.5788 23.8294L14.0501 22.3582ZM11.6667 14.5833V15.0758L11.0335 14.5833H11.6667ZM7.19172 25.7166L9.42091 26.1624L9.86678 28.3916L9.40778 28.8506L7.17855 25.7297L7.19172 25.7166ZM10.9125 28.9958C10.9804 28.9279 11.0305 28.8443 11.0583 28.7524C11.0861 28.6605 11.0908 28.5631 11.072 28.4689L10.5499 25.8584L11.6097 24.7986L16.9368 26.0623L16.9194 29.75H10.1583L10.9125 28.9958ZM16.1105 32.0833L15.5272 30.9167H16.9167V32.0833H16.1105ZM18.0833 30.3361L18.1054 25.6667H18.1056V24.5C18.1062 24.036 18.2907 23.5912 18.6188 23.2631C18.9469 22.9351 19.3917 22.7505 19.8556 22.75H21.0003C20.2755 23.2932 19.6872 23.9979 19.2821 24.8081C18.877 25.6183 18.6663 26.5118 18.6667 27.4176C18.667 28.3234 18.8784 29.2167 19.2842 30.0266C19.6899 30.8365 20.2787 31.5407 21.004 32.0833H18.0833V30.3361ZM25.5418 32.0833L20.5756 11.6667H21.7082L26.6744 32.0833H25.5418ZM29.1667 27.4167C29.167 28.0779 29.0267 28.7317 28.7549 29.3346C28.4832 29.9374 28.0862 30.4755 27.5905 30.9131L25.6389 22.8899C26.6478 23.1424 27.5433 23.7252 28.1826 24.5456C28.8219 25.3659 29.1683 26.3766 29.1667 27.4167ZM22.75 9.91668C22.8266 9.91668 22.9024 9.90159 22.9732 9.87228C23.044 9.84296 23.1083 9.79999 23.1625 9.74582L25.2542 7.65409C25.2995 7.60887 25.361 7.5835 25.425 7.58354C25.489 7.58358 25.5504 7.60904 25.5957 7.65431C25.641 7.69959 25.6664 7.76099 25.6665 7.82502C25.6665 7.88905 25.6411 7.95048 25.5959 7.99582L23.7751 9.8166C23.559 10.0339 23.3018 10.2063 23.0186 10.3236C22.7354 10.4409 22.4318 10.5008 22.1252 10.5H21.0003C21.0589 10.32 21.0889 10.1318 21.0891 9.94242C21.0891 9.93378 21.0886 9.92528 21.0885 9.91668H22.75ZM14 4.66668C14 4.9761 13.8771 5.27285 13.6583 5.49164C13.4395 5.71043 13.1427 5.83335 12.8333 5.83335C12.5239 5.83335 12.2272 5.71043 12.0084 5.49164C11.7896 5.27285 11.6667 4.9761 11.6667 4.66668V4.66661H11.6667C11.8214 4.66657 11.9697 4.60513 12.0791 4.49578L13.0749 3.50002H14V4.66668ZM13.8421 2.33335H12.8333C12.6786 2.33335 12.5303 2.3948 12.4209 2.50418L11.6667 3.25835V2.91668C11.6664 2.65994 11.751 2.41031 11.9072 2.20655C12.0634 2.00279 12.2825 1.85628 12.5304 1.78979C12.7784 1.7233 13.0414 1.74053 13.2786 1.83882C13.5158 1.9371 13.7139 2.11094 13.8421 2.33335ZM6.80721 3.67971L6.77178 3.66643C7.16983 3.55816 7.5404 3.36675 7.85907 3.10481C8.17773 2.84287 8.43725 2.51635 8.62051 2.14679C8.76686 1.85157 8.993 1.60326 9.27329 1.43002C9.55358 1.25679 9.8768 1.16556 10.2063 1.16668H10.2584C10.5417 1.16612 10.8184 1.25165 11.052 1.41194C10.7435 1.77554 10.5545 2.22527 10.5104 2.70005C10.0692 3.22492 9.47673 3.60072 8.81388 3.77607C8.15103 3.95142 7.4502 3.91777 6.80721 3.67971ZM10.3999 6.41668C10.54 6.4163 10.6788 6.44371 10.8083 6.49733C10.9378 6.55095 11.0553 6.62972 11.1541 6.72907L14.1709 9.74582C14.225 9.79999 14.2893 9.84296 14.3601 9.87228C14.4309 9.90159 14.5067 9.91668 14.5833 9.91668H17.5C17.6064 9.91669 17.7108 9.88758 17.8018 9.83251L18.731 9.27061C18.8501 9.1986 18.9862 9.15953 19.1254 9.15741C19.2645 9.15529 19.4017 9.1902 19.5229 9.25855C19.6442 9.32691 19.745 9.42626 19.8152 9.54642C19.8854 9.66659 19.9224 9.80325 19.9224 9.94242C19.923 10.0843 19.8751 10.2221 19.7866 10.3329C19.698 10.4438 19.5743 10.521 19.4358 10.5517L14.8174 11.5988C14.3655 11.7013 13.895 11.6875 13.4498 11.5589C13.0046 11.4303 12.5993 11.191 12.2716 10.8633L9.64572 8.23746C9.49656 8.08829 9.39498 7.89825 9.35382 7.69135C9.31267 7.48445 9.33379 7.27 9.41452 7.0751C9.49525 6.88021 9.63195 6.71363 9.80735 6.59644C9.98275 6.47924 10.189 6.41668 10.3999 6.41668ZM5.53276 11.6255L6.70833 10.45L9.38339 13.125L8.92086 13.5875C8.86237 13.646 8.817 13.7163 8.78773 13.7936C8.75847 13.871 8.746 13.9537 8.75114 14.0363C8.75627 14.1188 8.77891 14.1993 8.81754 14.2725C8.85616 14.3456 8.9099 14.4097 8.97519 14.4605L10.4223 15.586L8.40988 17.5985L6.13376 16.2708C5.74293 16.0428 5.40963 15.7282 5.15952 15.3511C4.90941 14.9741 4.74916 14.5446 4.69111 14.0959C4.63305 13.6472 4.67874 13.1911 4.82466 12.7628C4.97057 12.3346 5.21283 11.9455 5.53276 11.6255ZM3.5 17.5H5.92563L7.92562 18.6667H3.5V17.5ZM7 19.8333V22.506L5.83333 22.2292V19.8333H7ZM1.16667 26.4701C1.16667 25.9751 1.27876 25.4864 1.49452 25.0408C1.71028 24.5952 2.02412 24.2042 2.41251 23.8972C2.80089 23.5902 3.25375 23.3751 3.73711 23.268C4.22048 23.1609 4.72182 23.1646 5.20353 23.2789L7.2811 23.7718L6.56171 24.6967L6.00419 25.2542C5.90655 25.3518 5.84671 25.4809 5.83532 25.6186C5.82393 25.7562 5.86173 25.8934 5.942 26.0057L8.61648 29.75H4.44649C3.57692 29.749 2.74325 29.4031 2.12838 28.7883C1.51351 28.1734 1.16764 27.3397 1.16667 26.4701ZM2.91667 30.6454C3.36301 30.8089 3.83279 30.8993 4.30791 30.9131L3.72283 32.0833H2.91667V30.6454ZM1.16667 33.25H26.8333V33.8333H1.16667V33.25Z" fill="white"/>
</svg>
