<svg width="34" height="34" viewBox="0 0 34 34" fill="none" xmlns="http://www.w3.org/2000/svg">
<path d="M30.7058 22.5996C31.4335 20.8228 31.8065 18.9429 31.8065 17C31.8065 9.47503 26.0654 3.10771 18.6452 2.28403V0L15.6334 2.25881C8.08377 2.95197 2.19355 9.39332 2.19355 17C2.19355 17.6147 2.23961 18.2311 2.31529 18.8393C0.908677 19.9448 0 21.6569 0 23.5806C0 25.919 1.34026 27.9464 3.29032 28.9472V31.2581C3.29032 32.1651 4.02845 32.9032 4.93548 32.9032H7.12903C8.03607 32.9032 8.77419 32.1651 8.77419 31.2581V29.2998C11.2118 30.9351 14.0376 31.8065 17 31.8065H23.318C24.4252 33.1451 26.0983 34 27.9677 34C31.2937 34 34 31.2937 34 27.9677C34 25.6278 32.6581 23.5998 30.7058 22.5996ZM18.0556 3.33035C25.1512 3.86997 30.7097 9.87481 30.7097 17C30.7097 18.8009 30.3636 20.5431 29.6891 22.1888C29.1435 22.026 28.566 21.9355 27.9677 21.9355C27.7714 21.9355 27.5773 21.9465 27.3859 21.9651C28.124 20.4219 28.5161 18.7285 28.5161 17C28.5161 11.0538 24.0599 6.12713 18.1511 5.5409L17.5484 5.48113V6.58065L14.6238 4.3871L17.5484 2.19355V3.29142L18.0556 3.33035ZM21.9635 27.4194H17C15.0801 27.4194 13.2244 26.8929 11.5984 25.9036C11.8978 25.188 12.0645 24.4038 12.0645 23.5806C12.0645 23.3953 12.053 23.2132 12.0365 23.0323H23.0323V12.0645H19.7419V21.9355H18.6452V14.2581H15.3548V21.9355H14.2581V16.4516H10.9677V20.1231C9.97955 18.717 8.41006 17.7491 6.60916 17.5775C6.59874 17.3844 6.58065 17.1919 6.58065 17C6.58065 11.6565 10.5395 7.24803 15.8188 6.65413L18.6452 8.77419V6.70897C23.6881 7.50248 27.4194 11.8243 27.4194 17C27.4194 18.864 26.9192 20.6835 25.9798 22.2793C23.7945 23.0454 22.1795 25.0311 21.9635 27.4194ZM12.0645 21.9355V17.5484H13.1613V21.9355H12.0645ZM17.5484 21.9355H16.4516V15.3548H17.5484V21.9355ZM20.8387 21.9355V13.1613H21.9355V21.9355H20.8387ZM3.29032 17C3.29032 10.6475 7.72732 5.17348 13.7256 3.68955L12.7955 4.3871L14.6003 5.74106C9.32148 6.84661 5.48387 11.4701 5.48387 17C5.48387 17.1908 5.50252 17.3828 5.51239 17.5747C4.73916 17.6411 4.00926 17.8555 3.34681 18.1873C3.31281 17.7924 3.29032 17.3959 3.29032 17ZM1.09677 23.5806C1.09677 20.8595 3.31116 18.6452 6.03226 18.6452C8.75336 18.6452 10.9677 20.8595 10.9677 23.5806C10.9677 25.7243 9.59129 27.5482 7.67742 28.2282V24.5765C7.84961 24.6379 8.03277 24.6774 8.22581 24.6774C9.13284 24.6774 9.87097 23.9393 9.87097 23.0323C9.87097 22.1252 9.13284 21.3871 8.22581 21.3871C7.51181 21.3871 6.90858 21.8472 6.68155 22.4839H5.38242C5.15594 21.8472 4.55271 21.3871 3.83871 21.3871C2.93168 21.3871 2.19355 22.1252 2.19355 23.0323C2.19355 23.9393 2.93168 24.6774 3.83871 24.6774C4.03174 24.6774 4.2149 24.6379 4.3871 24.5765V28.2282C2.47323 27.5482 1.09677 25.7243 1.09677 23.5806ZM5.48387 23.5806H6.58065V28.4838C6.40023 28.5041 6.21761 28.5161 6.03226 28.5161C5.8469 28.5161 5.66429 28.5041 5.48387 28.4838V23.5806ZM7.67742 23.0323C7.67742 22.7301 7.92365 22.4839 8.22581 22.4839C8.52797 22.4839 8.77419 22.7301 8.77419 23.0323C8.77419 23.3344 8.52797 23.5806 8.22581 23.5806C7.92365 23.5806 7.67742 23.3344 7.67742 23.0323ZM4.3871 23.0323C4.3871 23.3344 4.14087 23.5806 3.83871 23.5806C3.53655 23.5806 3.29032 23.3344 3.29032 23.0323C3.29032 22.7301 3.53655 22.4839 3.83871 22.4839C4.14087 22.4839 4.3871 22.7301 4.3871 23.0323ZM7.12903 31.8065H4.93548C4.63332 31.8065 4.3871 31.5602 4.3871 31.2581V29.3793C4.91081 29.5279 5.46139 29.6129 6.03226 29.6129C6.60313 29.6129 7.15371 29.5279 7.67742 29.3793V31.2581C7.67742 31.5602 7.43119 31.8065 7.12903 31.8065ZM17 30.7097C14.3156 30.7097 11.7519 29.9386 9.52823 28.4871C10.1402 28.0495 10.6678 27.5027 11.0807 26.8721C12.8663 27.9453 14.8986 28.5161 17 28.5161H21.9635C22.0347 29.3003 22.2579 30.0401 22.6018 30.7097H17ZM25.2631 32.0911L25.4298 30.7563C25.5894 29.4791 26.6807 28.5161 27.9677 28.5161C29.2548 28.5161 30.3461 29.4791 30.5057 30.7563L30.6724 32.0911C29.8948 32.6033 28.9664 32.9032 27.9677 32.9032C26.9691 32.9032 26.0407 32.6033 25.2631 32.0911ZM26.871 26.3226C26.871 25.7177 27.3629 25.2258 27.9677 25.2258C28.5726 25.2258 29.0645 25.7177 29.0645 26.3226C29.0645 26.9275 28.5726 27.4194 27.9677 27.4194C27.3629 27.4194 26.871 26.9275 26.871 26.3226ZM31.6688 31.2219L31.5937 30.6208C31.4374 29.3678 30.6526 28.3264 29.5811 27.7966C29.9381 27.4062 30.1613 26.8918 30.1613 26.3226C30.1613 25.1128 29.1775 24.129 27.9677 24.129C26.758 24.129 25.7742 25.1128 25.7742 26.3226C25.7742 26.8918 25.9974 27.4062 26.3538 27.7961C25.2823 28.3258 24.4981 29.3672 24.3413 30.6203L24.2661 31.2213C23.5011 30.3521 23.0323 29.2148 23.0323 27.9677C23.0323 25.2466 25.2466 23.0323 27.9677 23.0323C30.6888 23.0323 32.9032 25.2466 32.9032 27.9677C32.9032 29.2148 32.4344 30.3521 31.6688 31.2219Z" fill="white"/>
</svg>
