<svg width="34" height="34" viewBox="0 0 34 34" fill="none" xmlns="http://www.w3.org/2000/svg">
<path d="M5.66761 14.7345C5.06667 14.7339 4.49055 14.4948 4.06562 14.0699C3.64069 13.645 3.40166 13.0688 3.40097 12.4679V8.21796C3.40247 6.94098 3.91041 5.71673 4.81338 4.81377C5.71634 3.91081 6.94059 3.40286 8.21757 3.40136H9.37101C9.09556 2.92506 9.00277 2.36483 9.10993 1.82516C9.2171 1.28549 9.51691 0.80322 9.95344 0.468303C10.39 0.133386 10.9334 -0.0313132 11.4824 0.00492409C12.0315 0.0411614 12.5485 0.27586 12.9373 0.665248L16.3372 4.0652C16.7617 4.49061 17.0001 5.06702 17.0001 5.66796C17.0001 6.26891 16.7617 6.84531 16.3372 7.27072L12.9373 10.6707C12.5485 11.0599 12.0315 11.2944 11.4826 11.3306C10.9336 11.3667 10.3903 11.202 9.95386 10.8672C9.51741 10.5323 9.21764 10.0502 9.11042 9.51061C9.00321 8.97105 9.09588 8.41092 9.37115 7.93463H8.21771C8.14257 7.93463 8.0705 7.96449 8.01737 8.01762C7.96424 8.07075 7.93438 8.14282 7.93438 8.21796V12.4679C7.93367 13.0689 7.69462 13.645 7.26967 14.0699C6.84471 14.4949 6.26856 14.7339 5.66761 14.7345ZM8.21757 4.53468C7.24105 4.5358 6.30485 4.92423 5.61434 5.61473C4.92383 6.30524 4.53541 7.24144 4.53429 8.21796V12.4679C4.53429 12.7685 4.65369 13.0567 4.86623 13.2693C5.07877 13.4818 5.36703 13.6012 5.66761 13.6012C5.96818 13.6012 6.25645 13.4818 6.46898 13.2693C6.68152 13.0567 6.80092 12.7685 6.80092 12.4679V8.21796C6.80136 7.84238 6.95075 7.4823 7.21633 7.21672C7.48191 6.95114 7.84199 6.80175 8.21757 6.80132H10.6302C10.7423 6.80131 10.8518 6.83454 10.945 6.89681C11.0382 6.95907 11.1108 7.04758 11.1537 7.15112C11.1966 7.25467 11.2079 7.36861 11.186 7.47853C11.1641 7.58845 11.1101 7.68943 11.0309 7.76867L10.533 8.26663C10.4267 8.37163 10.3423 8.49662 10.2845 8.6344C10.2267 8.77218 10.1967 8.92002 10.1962 9.06943C10.1958 9.21884 10.2249 9.36686 10.2819 9.50498C10.3388 9.6431 10.4226 9.76859 10.5282 9.87423C10.6339 9.97987 10.7594 10.0636 10.8975 10.1205C11.0356 10.1775 11.1836 10.2066 11.333 10.2061C11.4824 10.2057 11.6303 10.1757 11.7681 10.1179C11.9058 10.0601 12.0308 9.97557 12.1358 9.86928L15.5358 6.46933C15.748 6.25663 15.8672 5.96843 15.8672 5.66796C15.8672 5.36749 15.748 5.07929 15.5358 4.8666L12.1358 1.46665C11.9233 1.2541 11.635 1.13469 11.3344 1.13469C11.0339 1.13468 10.7456 1.25408 10.533 1.46661C10.3205 1.67914 10.2011 1.96741 10.2011 2.26798C10.2011 2.56856 10.3205 2.85683 10.533 3.06937L11.0309 3.56725C11.1102 3.64649 11.1642 3.74745 11.186 3.85737C11.2079 3.9673 11.1967 4.08124 11.1538 4.1848C11.111 4.28835 11.0383 4.37686 10.9452 4.43914C10.852 4.50142 10.7424 4.53467 10.6303 4.53468H8.21757Z" fill="white"/>
<path d="M28.3354 17.0013C28.0376 17.0022 27.7426 16.9439 27.4675 16.83C27.1923 16.716 26.9425 16.5486 26.7325 16.3375L23.3326 12.9375C22.9433 12.5488 22.7087 12.0317 22.6725 11.4827C22.6364 10.9338 22.8011 10.3904 23.136 9.95392C23.4709 9.51745 23.9531 9.21768 24.4928 9.11052C25.0324 9.00335 25.5926 9.09611 26.0688 9.37149V8.21812C26.0688 8.14298 26.039 8.07091 25.9858 8.01778C25.9327 7.96464 25.8606 7.93479 25.7855 7.93479H21.5348C20.9336 7.93479 20.3571 7.69599 19.932 7.27091C19.5069 6.84583 19.2681 6.26931 19.2681 5.66816C19.2681 5.06701 19.5069 4.49048 19.932 4.0654C20.3571 3.64033 20.9336 3.40152 21.5348 3.40152H25.7847C27.0617 3.40302 28.286 3.91096 29.1889 4.81393C30.0919 5.71689 30.5998 6.94114 30.6013 8.21812V9.37149C31.0337 9.12271 31.536 9.02321 32.0305 9.08836C32.5251 9.15351 32.9845 9.37969 33.3377 9.73195C33.7621 10.1574 34.0004 10.7338 34.0004 11.3347C34.0004 11.9356 33.7621 12.512 33.3377 12.9374L29.9377 16.3374C29.7277 16.5484 29.478 16.7158 29.203 16.8298C28.928 16.9437 28.6331 17.002 28.3354 17.0013ZM24.9354 10.2019C24.7113 10.2018 24.4922 10.2682 24.3058 10.3927C24.1193 10.5171 23.9741 10.6941 23.8883 10.9012C23.8025 11.1083 23.78 11.3361 23.8238 11.556C23.8675 11.7758 23.9755 11.9777 24.134 12.1361L27.534 15.5361C27.6392 15.6413 27.7642 15.7248 27.9017 15.7818C28.0392 15.8387 28.1866 15.8681 28.3354 15.8681C28.4842 15.8681 28.6316 15.8387 28.7691 15.7818C28.9066 15.7248 29.0316 15.6413 29.1368 15.5361L32.5367 12.1361C32.6442 12.0314 32.7299 11.9064 32.7887 11.7683C32.8475 11.6302 32.8782 11.4819 32.8792 11.3318C32.8802 11.1817 32.8514 11.033 32.7944 10.8941C32.7374 10.7553 32.6535 10.6292 32.5474 10.523C32.4412 10.4169 32.3151 10.3329 32.1763 10.2759C32.0375 10.2189 31.8887 10.1901 31.7386 10.1911C31.5886 10.192 31.4402 10.2228 31.3021 10.2816C31.164 10.3403 31.039 10.4259 30.9342 10.5334L30.4363 11.0313C30.357 11.1106 30.2561 11.1646 30.1461 11.1865C30.0362 11.2083 29.9222 11.1971 29.8187 11.1542C29.7151 11.1113 29.6266 11.0387 29.5643 10.9455C29.5021 10.8523 29.4688 10.7427 29.4689 10.6306V8.21812C29.4677 7.2416 29.0793 6.3054 28.3888 5.61489C27.6983 4.92438 26.7621 4.53596 25.7856 4.53484H21.5348C21.2342 4.53484 20.9459 4.65424 20.7334 4.86678C20.5209 5.07932 20.4015 5.36758 20.4015 5.66816C20.4015 5.96873 20.5209 6.25699 20.7334 6.46953C20.9459 6.68207 21.2342 6.80147 21.5348 6.80147H25.7847C26.1603 6.80191 26.5204 6.9513 26.786 7.21688C27.0515 7.48246 27.2009 7.84254 27.2014 8.21812V10.6306C27.2014 10.7427 27.1682 10.8523 27.1059 10.9455C27.0436 11.0387 26.9551 11.1113 26.8516 11.1542C26.748 11.1971 26.634 11.2083 26.5241 11.1865C26.4142 11.1646 26.3132 11.1106 26.2339 11.0313L25.736 10.5334C25.6309 10.4282 25.5061 10.3447 25.3687 10.2878C25.2313 10.2309 25.084 10.2017 24.9352 10.2019H24.9354Z" fill="white"/>
<path d="M22.6683 34.0007C22.3705 34.0016 22.0755 33.9433 21.8004 33.8294C21.5252 33.7154 21.2754 33.548 21.0654 33.3369L17.6655 29.9369C17.241 29.5115 17.0026 28.9351 17.0026 28.3342C17.0026 27.7332 17.241 27.1568 17.6655 26.7314L21.0654 23.3315C21.4542 22.9421 21.9712 22.7075 22.5202 22.6712C23.0692 22.635 23.6126 22.7997 24.0491 23.1346C24.4857 23.4695 24.7855 23.9517 24.8927 24.4914C24.9998 25.031 24.9071 25.5912 24.6317 26.0675H25.7851C25.8603 26.0675 25.9323 26.0377 25.9855 25.9845C26.0386 25.9314 26.0685 25.8593 26.0685 25.7842V21.5342C26.0685 20.9331 26.3073 20.3566 26.7323 19.9315C27.1574 19.5064 27.7339 19.2676 28.3351 19.2676C28.9362 19.2676 29.5128 19.5064 29.9379 19.9315C30.3629 20.3566 30.6017 20.9331 30.6017 21.5342V25.7842C30.6002 27.0612 30.0923 28.2854 29.1893 29.1884C28.2864 30.0913 27.0621 30.5993 25.7851 30.6008H24.6317C24.8307 30.9454 24.9354 31.3363 24.9354 31.7342C24.9354 32.1321 24.8306 32.523 24.6316 32.8676C24.4326 33.2122 24.1464 33.4983 23.8018 33.6972C23.4571 33.8961 23.0662 34.0008 22.6683 34.0007ZM22.6683 23.8009C22.5194 23.8005 22.3719 23.8296 22.2343 23.8866C22.0968 23.9436 21.9719 24.0273 21.8669 24.1329L18.4669 27.5329C18.2547 27.7456 18.1355 28.0338 18.1355 28.3343C18.1355 28.6347 18.2547 28.9229 18.4669 29.1356L21.8669 32.5356C21.9721 32.6408 22.0971 32.7243 22.2346 32.7813C22.3721 32.8382 22.5194 32.8675 22.6683 32.8675C22.8171 32.8675 22.9645 32.8382 23.102 32.7813C23.2395 32.7243 23.3644 32.6408 23.4697 32.5356C23.5749 32.4304 23.6584 32.3054 23.7153 32.1679C23.7723 32.0304 23.8016 31.8831 23.8016 31.7342C23.8016 31.5854 23.7723 31.438 23.7154 31.3005C23.6584 31.163 23.5749 31.0381 23.4697 30.9329L22.9718 30.435C22.8925 30.3557 22.8385 30.2547 22.8166 30.1448C22.7947 30.0349 22.8059 29.9209 22.8488 29.8173C22.8917 29.7137 22.9644 29.6252 23.0576 29.5629C23.1508 29.5007 23.2604 29.4674 23.3725 29.4675H25.7851C26.7617 29.4663 27.6979 29.0779 28.3884 28.3874C29.0789 27.6969 29.4673 26.7607 29.4684 25.7842V21.5342C29.4684 21.2337 29.349 20.9454 29.1365 20.7329C28.9239 20.5203 28.6357 20.4009 28.3351 20.4009C28.0345 20.4009 27.7463 20.5203 27.5337 20.7329C27.3212 20.9454 27.2018 21.2337 27.2018 21.5342V25.7842C27.2013 26.1598 27.052 26.5199 26.7864 26.7854C26.5208 27.051 26.1607 27.2004 25.7851 27.2008H23.3725C23.2604 27.2008 23.1509 27.1676 23.0577 27.1053C22.9645 27.0431 22.8919 26.9546 22.849 26.851C22.8061 26.7475 22.7949 26.6335 22.8167 26.5236C22.8386 26.4137 22.8926 26.3127 22.9718 26.2335L23.4697 25.7355C23.6282 25.577 23.7361 25.3751 23.7798 25.1553C23.8235 24.9354 23.8011 24.7076 23.7153 24.5005C23.6295 24.2934 23.4843 24.1164 23.2979 23.9919C23.1115 23.8674 22.8924 23.8009 22.6683 23.8009Z" fill="white"/>
<path d="M12.4677 30.6008H8.21779C6.94081 30.5993 5.71656 30.0913 4.8136 29.1884C3.91064 28.2854 3.40269 27.0611 3.40119 25.7842V24.6308C2.92492 24.9062 2.36476 24.9989 1.82515 24.8918C1.28554 24.7846 0.80332 24.4849 0.468408 24.0484C0.133496 23.6119 -0.0312463 23.0686 0.00490068 22.5196C0.0410476 21.9707 0.275616 21.4536 0.664866 21.0648L4.06482 17.6649C4.48997 17.2398 5.06653 17.001 5.66772 17.001C6.26891 17.001 6.84548 17.2398 7.27062 17.6649L10.6706 21.0648C11.0589 21.4539 11.2927 21.9707 11.3284 22.5193C11.3641 23.0678 11.1994 23.6107 10.8648 24.0468C10.5302 24.4829 10.0486 24.7827 9.50956 24.8903C8.9705 24.9979 8.4107 24.906 7.93432 24.6317V25.7842C7.93432 25.8593 7.96417 25.9314 8.01731 25.9845C8.07044 26.0376 8.14251 26.0675 8.21765 26.0675H12.4676C13.0687 26.0675 13.6453 26.3063 14.0703 26.7314C14.4954 27.1565 14.7342 27.733 14.7342 28.3341C14.7342 28.9353 14.4954 29.5118 14.0703 29.9369C13.6453 30.362 13.0687 30.6008 12.4676 30.6008H12.4677ZM3.96714 22.805C4.11743 22.805 4.26156 22.8647 4.36783 22.971C4.4741 23.0773 4.5338 23.2214 4.5338 23.3717V25.7842C4.53493 26.7607 4.92335 27.6969 5.61385 28.3874C6.30436 29.0779 7.24056 29.4663 8.21709 29.4674H12.467C12.7676 29.4674 13.0559 29.348 13.2684 29.1355C13.4809 28.923 13.6003 28.6347 13.6003 28.3341C13.6003 28.0336 13.4809 27.7453 13.2684 27.5328C13.0559 27.3202 12.7676 27.2008 12.467 27.2008H8.21709C7.8415 27.2004 7.48142 27.051 7.21584 26.7854C6.95026 26.5198 6.80087 26.1597 6.80044 25.7842V23.3717C6.80042 23.2596 6.83365 23.15 6.89592 23.0568C6.95818 22.9636 7.0467 22.891 7.15026 22.8481C7.25382 22.8052 7.36777 22.794 7.47771 22.8158C7.58765 22.8377 7.68862 22.8917 7.76787 22.971L8.26582 23.4689C8.37105 23.5741 8.49599 23.6576 8.63349 23.7145C8.77099 23.7715 8.91836 23.8008 9.06719 23.8008C9.21602 23.8008 9.36339 23.7715 9.5009 23.7146C9.6384 23.6576 9.76334 23.5741 9.86858 23.4689C9.97382 23.3637 10.0573 23.2387 10.1143 23.1012C10.1712 22.9637 10.2005 22.8164 10.2005 22.6675C10.2005 22.5187 10.1712 22.3713 10.1143 22.2338C10.0573 22.0963 9.97385 21.9714 9.86861 21.8661L6.46866 18.4662C6.25595 18.2539 5.96774 18.1348 5.66726 18.1348C5.36678 18.1348 5.07857 18.2539 4.86586 18.4662L1.46591 21.8661C1.35788 21.9707 1.27175 22.0958 1.21253 22.234C1.1533 22.3722 1.12217 22.5208 1.12095 22.6711C1.11972 22.8215 1.14843 22.9706 1.2054 23.1097C1.26236 23.2489 1.34645 23.3753 1.45276 23.4817C1.55907 23.588 1.68548 23.6721 1.82462 23.7291C1.96375 23.7861 2.11284 23.8148 2.2632 23.8137C2.41356 23.8125 2.56217 23.7814 2.70039 23.7222C2.83861 23.663 2.96367 23.5769 3.06828 23.4689L3.56623 22.971C3.61888 22.9183 3.68138 22.8766 3.75017 22.8481C3.81896 22.8196 3.89269 22.805 3.96714 22.805Z" fill="white"/>
</svg>
