<svg width="34" height="34" viewBox="0 0 34 34" fill="none" xmlns="http://www.w3.org/2000/svg">
<path d="M17.018 33.9769C20.5365 33.9838 23.9695 32.8923 26.8379 30.8546L27.4115 31.4283C27.7086 31.7277 28.1488 31.8348 28.5502 31.7052C28.9452 31.5796 29.2363 31.2431 29.3039 30.8343L30.1261 25.9968C30.1837 25.6378 30.0654 25.2731 29.8082 25.0162C29.5509 24.7593 29.186 24.6415 28.8271 24.6995L23.9925 25.5206C23.583 25.588 23.2459 25.8794 23.1199 26.2748C22.9904 26.6763 23.0974 27.1164 23.3968 27.4135L23.5667 27.5868C18.7996 30.5384 12.648 29.9416 8.53718 26.1287C4.42635 22.3158 3.36931 16.2264 5.95462 11.2511C6.05446 11.0714 6.04903 10.8517 5.94045 10.6771C5.83187 10.5025 5.63719 10.4005 5.43185 10.4106C5.2265 10.4207 5.04275 10.5412 4.9518 10.7256C2.05704 16.2767 3.33037 23.0872 8.03519 27.2175C12.74 31.3477 19.6581 31.7283 24.7875 28.1389C24.9242 28.0428 25.0115 27.8911 25.0259 27.7246C25.0403 27.558 24.9804 27.3936 24.8623 27.2754L24.1828 26.6367L28.9681 25.8247H29.0078L28.215 30.6276L27.2983 29.7103C27.0983 29.5102 26.7814 29.4885 26.5559 29.6593C20.6404 34.1362 12.4113 33.9126 6.74765 29.1211C1.08395 24.3296 -0.500032 16.2513 2.93482 9.67579C3.03464 9.49581 3.02894 9.27585 2.91995 9.10127C2.81096 8.92669 2.61583 8.825 2.41029 8.83566C2.20476 8.84632 2.0212 8.96766 1.93086 9.15258C-0.823089 14.4198 -0.619552 20.7441 2.46737 25.8233C5.5543 30.9026 11.0743 33.9958 17.018 33.9769Z" fill="white"/>
<path d="M29.0096 4.99353C23.1578 -0.891936 13.9024 -1.66785 7.15237 3.16115L6.58046 2.58698C6.28655 2.28999 5.85137 2.18206 5.45274 2.30726C5.05412 2.43247 4.75881 2.76984 4.68749 3.18154C3.72769 8.79703 4.38284 4.97428 3.86586 8.01844C3.80835 8.37728 3.92655 8.74192 4.18364 8.99879C4.44073 9.25565 4.80548 9.37354 5.16427 9.31572L9.99947 8.49465C10.4117 8.42418 10.7499 8.12921 10.8757 7.73043C11.0016 7.33165 10.8939 6.89599 10.5969 6.60168L10.427 6.43181C10.6961 6.2642 10.9715 6.10678 11.2531 5.95956C16.0751 3.4568 21.963 4.3685 25.8022 8.21237C29.6414 12.0562 30.5459 17.9452 28.0373 22.7641C27.9375 22.9439 27.9429 23.1636 28.0515 23.3382C28.1601 23.5127 28.3548 23.6147 28.5601 23.6047C28.7655 23.5946 28.9492 23.474 29.0402 23.2896C31.782 18.0314 30.7965 11.6023 26.6056 7.40673C22.4147 3.21115 15.9867 2.21853 10.7254 4.95446C10.2004 5.22871 9.69356 5.53625 9.20785 5.87519C9.07056 5.97114 8.9828 6.12295 8.96816 6.28981C8.95351 6.45667 9.0135 6.62145 9.13198 6.73985L9.81148 7.37801L4.98307 8.20587C5.48533 5.25571 5.76789 3.46183 5.77978 3.38765L6.69711 4.30498C6.89831 4.50606 7.21747 4.52666 7.44286 4.35311C7.56064 4.26251 7.67728 4.177 7.80582 4.0881C13.778 -0.163473 21.8861 0.233649 27.4142 5.04848C32.9423 9.86332 34.4487 17.8402 31.0571 24.3394C30.9573 24.5194 30.963 24.7394 31.072 24.914C31.181 25.0885 31.3761 25.1902 31.5817 25.1796C31.7872 25.1689 31.9708 25.0476 32.0611 24.8627C35.5101 18.2869 34.2729 10.2313 29.0096 4.99353Z" fill="white"/>
<path d="M11.334 19.5069L12.6324 20.8053C12.8535 21.0263 13.212 21.0263 13.4331 20.8053L17.5628 16.6756L19.9937 19.1065C20.2147 19.3272 20.5727 19.3272 20.7938 19.1065L23.2145 16.6909L23.7241 17.2005C23.9602 17.439 24.2816 17.5733 24.6171 17.5737C24.7262 17.5736 24.8348 17.5597 24.9404 17.5324C25.377 17.4216 25.7212 17.086 25.843 16.6524L26.5735 14.0958C26.7 13.6525 26.5763 13.1755 26.2502 12.8495C25.9242 12.5236 25.4471 12.4 25.0038 12.5267L22.4478 13.2566C22.0153 13.3803 21.6806 13.7235 21.5678 14.1589C21.455 14.5943 21.581 15.0569 21.8991 15.375L22.4144 15.8902L20.394 17.9055L17.9625 15.4746C17.7414 15.2536 17.383 15.2536 17.1619 15.4746L13.0328 19.6043L11.7344 18.3059C11.5132 18.0848 11.1548 18.0848 10.9337 18.3059L9.06902 20.1705V11.345C9.06902 11.0322 8.8155 10.7787 8.50277 10.7787C8.19004 10.7787 7.93652 11.0322 7.93652 11.345V23.2362C7.93652 23.5489 8.19004 23.8025 8.50277 23.8025H24.924C25.2367 23.8025 25.4902 23.5489 25.4902 23.2362C25.4902 22.9235 25.2367 22.67 24.924 22.67H9.06902V21.7719L11.334 19.5069ZM22.6641 14.4435C22.6748 14.3956 22.7117 14.358 22.7592 14.3461L25.3141 13.6162C25.3622 13.6022 25.414 13.6155 25.4493 13.6509C25.4847 13.6862 25.498 13.738 25.484 13.7861L24.7541 16.341C24.7406 16.3869 24.7041 16.4225 24.6578 16.4348C24.6115 16.447 24.5621 16.4342 24.5276 16.401L22.6992 14.5726C22.6647 14.5392 22.6512 14.4897 22.6641 14.4435Z" fill="white"/>
</svg>
