<svg width="40" height="25" viewBox="0 0 40 25" fill="none" xmlns="http://www.w3.org/2000/svg">
<path d="M6.78463 24.8726C7.0993 24.9281 7.39918 24.7189 7.45499 24.4046C7.51095 24.0902 7.30135 23.79 6.98698 23.7342C3.60851 23.1336 1.15633 20.2027 1.15633 16.7653C1.15633 12.8621 4.33167 9.68677 8.23481 9.68677C9.16573 9.68677 10.0552 9.86778 10.8701 10.1959L10.5172 10.9022C9.80911 10.6255 9.03977 10.4719 8.23481 10.4719C4.76468 10.4719 1.94155 13.2951 1.94155 16.7653C1.94155 20.2354 4.76468 23.0585 8.23481 23.0585C11.5099 23.0585 14.2075 20.5434 14.5004 17.3434H15.2889C15.0317 20.5268 12.6699 23.1676 9.48264 23.7342C9.16828 23.7901 8.95867 24.0902 9.01464 24.4046C9.06444 24.6848 9.30819 24.8816 9.58317 24.8816C9.61678 24.8816 9.65085 24.8787 9.685 24.8726C12.9238 24.2968 15.4292 21.8805 16.212 18.8113C16.5729 19.1441 17.0217 19.3829 17.5191 19.4884V20.6699H17.0126C16.6933 20.6699 16.4345 20.9287 16.4345 21.2481C16.4345 21.5675 16.6933 21.8263 17.0126 21.8263H19.1819C19.5013 21.8263 19.7601 21.5675 19.7601 21.2481C19.7601 20.9287 19.5013 20.6699 19.1819 20.6699H18.6755V19.4884C19.934 19.2215 20.8812 18.1021 20.8812 16.7652C20.8812 16.1422 20.6755 15.5663 20.3284 15.102L27.1671 7.52753L27.8189 9.27273C24.978 10.5728 22.9993 13.4422 22.9993 16.7652C22.9993 21.3058 26.6935 25 31.2341 25C35.7748 25 39.4689 21.3058 39.4689 16.7652C39.4689 12.2245 35.7748 8.53037 31.2341 8.53037C30.4243 8.53037 29.6416 8.64847 28.9018 8.86732L26.9226 3.56742H30.2351C30.4636 4.12369 31.0106 4.51676 31.6482 4.51676C31.7719 4.51676 31.8726 4.61744 31.8726 4.74117C31.8726 4.86489 31.7719 4.96557 31.6482 4.96557H30.9444C30.1022 4.96557 29.4169 5.65089 29.4169 6.49308C29.4169 7.33527 30.1022 8.02051 30.9444 8.02051H31.6482C33.4565 8.02051 34.9277 6.54935 34.9277 4.74109C34.9277 2.93283 33.4565 1.46167 31.6482 1.46167C31.0106 1.46167 30.4636 1.85475 30.2351 2.41094H26.0895C25.6942 2.41094 25.4051 2.80764 25.5479 3.19138L26.1343 4.7616H14.3433L13.9752 3.77594C14.2097 3.6304 14.4093 3.42781 14.55 3.18021C14.6426 3.01716 14.8167 2.91579 15.0043 2.91579H17.4628C18.1432 2.91579 18.6067 2.22562 18.3504 1.59588L18.3504 1.59581C17.9554 0.62642 17.0237 0 15.9768 0H10.0537C9.26379 0 8.62118 0.642686 8.62118 1.43261C8.62118 2.8646 9.78622 4.02964 11.2183 4.02964H12.8356L13.3124 5.30638L11.3883 9.15826C10.4165 8.75385 9.35136 8.53014 8.23489 8.53014C3.69415 8.53045 0 12.2246 0 16.7653C0 20.7641 2.85335 24.1738 6.78463 24.8726ZM31.2341 9.68677C35.1373 9.68677 38.3126 12.8621 38.3126 16.7653C38.3126 20.6684 35.1373 23.8438 31.2341 23.8438C27.331 23.8438 24.1556 20.6684 24.1556 16.7653C24.1556 13.9377 25.8223 11.4925 28.2247 10.3594L28.5003 11.0975C26.3958 12.1168 24.9409 14.2742 24.9409 16.7653C24.9409 20.2354 27.7641 23.0585 31.2342 23.0585C34.1495 23.0585 36.6642 21.0814 37.3496 18.2504C37.4248 17.9401 37.2342 17.6276 36.9238 17.5524C36.6134 17.477 36.301 17.668 36.2258 17.9782C35.6665 20.2886 33.6139 21.9021 31.2342 21.9021C28.4018 21.9021 26.0973 19.5976 26.0973 16.7652C26.0973 14.7699 27.2415 13.038 28.9075 12.1877L30.1408 15.49C29.7815 15.7985 29.5531 16.2556 29.5531 16.7653C29.5531 17.6922 30.3072 18.4463 31.2342 18.4463C32.1612 18.4463 32.9154 17.6923 32.9154 16.7653C32.9154 15.8383 32.1612 15.0842 31.2342 15.0842C31.2307 15.0842 31.2272 15.0844 31.2237 15.0844L29.9902 11.7813C30.3888 11.6818 30.8053 11.6282 31.2343 11.6282C33.6139 11.6282 35.6666 13.2418 36.2259 15.5521C36.3011 15.8623 36.6134 16.053 36.9239 15.978C37.2342 15.9028 37.4249 15.5904 37.3497 15.28C36.6643 12.4489 34.1495 10.4718 31.2343 10.4718C30.6631 10.4718 30.1102 10.5496 29.5838 10.6929L29.3076 9.95312C29.9202 9.77974 30.5665 9.68677 31.2341 9.68677ZM31.2341 16.2406C31.5235 16.2406 31.759 16.476 31.759 16.7653C31.759 17.0547 31.5235 17.2901 31.2341 17.2901C30.9448 17.2901 30.7094 17.0547 30.7094 16.7653C30.7094 16.476 30.9448 16.2406 31.2341 16.2406ZM11.9039 10.7139C13.7911 11.8624 15.1012 13.8687 15.2896 16.1872H14.5004C14.3162 14.1757 13.1821 12.4357 11.5512 11.42L11.9039 10.7139ZM9.81343 16.1871C9.73418 15.9715 9.61161 15.7767 9.4569 15.6127L11.0318 12.4599C12.2862 13.2776 13.1628 14.6274 13.3384 16.1871H9.81343ZM8.23481 16.2406C8.52413 16.2406 8.75955 16.476 8.75955 16.7653C8.75955 17.0547 8.52413 17.2901 8.23481 17.2901C7.94542 17.2901 7.71 17.0547 7.71 16.7653C7.71 16.476 7.94542 16.2406 8.23481 16.2406ZM8.23481 21.9022C5.40235 21.9022 3.09787 19.5977 3.09787 16.7653C3.09787 13.9327 5.40235 11.6282 8.23481 11.6282C8.85422 11.6282 9.44834 11.7385 9.99867 11.9403L8.42276 15.095C8.36101 15.088 8.29833 15.0842 8.23481 15.0842C7.3079 15.0842 6.55367 15.8383 6.55367 16.7653C6.55367 17.6923 7.30783 18.4463 8.23481 18.4463C8.95867 18.4463 9.57715 17.9864 9.81343 17.3434H13.3384C13.05 19.9046 10.8718 21.9022 8.23481 21.9022ZM18.6755 18.2849V16.7653C18.6755 16.4459 18.4167 16.1871 18.0973 16.1871C17.778 16.1871 17.5192 16.4459 17.5192 16.7653V18.2849C16.9066 18.051 16.4697 17.459 16.4697 16.7653C16.4697 15.8678 17.1999 15.1377 18.0973 15.1377C18.9948 15.1377 19.7249 15.8679 19.7249 16.7653C19.7249 17.459 19.288 18.051 18.6755 18.2849ZM31.6482 2.61823C32.8189 2.61823 33.7713 3.57058 33.7713 4.74132C33.7713 5.91206 32.8189 6.86441 31.6482 6.86441H30.9444C30.7398 6.86441 30.5733 6.6979 30.5733 6.49331C30.5733 6.28864 30.7398 6.12213 30.9444 6.12213H31.6482C32.4095 6.12213 33.0289 5.50272 33.0289 4.7414C33.0289 3.98007 32.4095 3.36067 31.6482 3.36067C31.4435 3.36067 31.277 3.19416 31.277 2.98949C31.277 2.78474 31.4435 2.61823 31.6482 2.61823ZM26.566 5.91815L26.7113 6.30699L19.4597 14.3388C19.0567 14.1116 18.5921 13.9814 18.0974 13.9814C17.9944 13.9814 17.8929 13.9874 17.7928 13.9984L14.7752 5.91823H26.566V5.91815ZM9.77743 1.43292C9.77743 1.28052 9.90131 1.15663 10.0536 1.15663H15.9767C16.446 1.15663 16.873 1.38597 17.1319 1.75977H15.0043C14.4016 1.75977 13.8423 2.08532 13.5446 2.60921C13.4519 2.77233 13.2778 2.8737 13.0901 2.8737H11.2181C10.4238 2.87362 9.77743 2.22731 9.77743 1.43292ZM13.8653 6.7874L16.6943 14.3623C16.5208 14.464 16.3592 14.5836 16.2123 14.719C15.6636 12.5811 14.2755 10.7763 12.4219 9.67714L13.8653 6.7874Z" fill="white"/>
</svg>
