<svg width="86" height="25" viewBox="0 0 86 25" fill="none" xmlns="http://www.w3.org/2000/svg">
<path d="M11.225 14.15C11.0583 15.7 10.45 16.9 9.4 17.75C8.35 18.5833 7.05833 19 5.525 19H0.35C0.266667 19 0.2 18.975 0.15 18.925C0.1 18.8583 0.0833334 18.7833 0.1 18.7L2.175 1.8C2.19167 1.71667 2.225 1.65 2.275 1.6C2.34167 1.53333 2.41667 1.5 2.5 1.5H7.375C8.85833 1.5 10.0083 1.83333 10.825 2.5C11.6417 3.15 12.05 4.125 12.05 5.425C12.05 5.59167 12.0333 5.85833 12 6.225C11.7833 7.94167 10.975 9.15833 9.575 9.875C9.49167 9.925 9.48333 9.975 9.55 10.025C10.7 10.725 11.275 11.8417 11.275 13.375C11.275 13.525 11.2583 13.7833 11.225 14.15ZM4.85 4C4.78333 4 4.73333 4.04167 4.7 4.125L4.125 8.775C4.125 8.85833 4.16667 8.9 4.25 8.9H6.5C7.26667 8.9 7.88333 8.69167 8.35 8.275C8.83333 7.84167 9.125 7.24167 9.225 6.475C9.24167 6.375 9.25 6.23333 9.25 6.05C9.25 5.4 9.05833 4.9 8.675 4.55C8.30833 4.18333 7.78333 4 7.1 4H4.85ZM5.725 16.475C6.55833 16.475 7.225 16.1917 7.725 15.625C8.225 15.0583 8.475 14.2833 8.475 13.3C8.475 12.6167 8.29167 12.0917 7.925 11.725C7.55833 11.3417 7.04167 11.15 6.375 11.15H3.975C3.90833 11.15 3.85833 11.1917 3.825 11.275L3.2 16.35C3.2 16.4333 3.23333 16.475 3.3 16.475H5.725ZM16.2842 4.475C15.8342 4.475 15.4675 4.33333 15.1842 4.05C14.9175 3.76667 14.7842 3.4 14.7842 2.95C14.7842 2.36667 14.9675 1.88333 15.3342 1.5C15.7175 1.11667 16.1842 0.924999 16.7342 0.924999C17.2008 0.924999 17.5675 1.06667 17.8342 1.35C18.1175 1.61667 18.2592 1.975 18.2592 2.425C18.2592 3.00833 18.0675 3.5 17.6842 3.9C17.3008 4.28333 16.8342 4.475 16.2842 4.475ZM13.3842 19C13.3008 19 13.2342 18.975 13.1842 18.925C13.1342 18.8583 13.1175 18.7833 13.1342 18.7L14.6342 6.5C14.6508 6.41667 14.6842 6.35 14.7342 6.3C14.8008 6.23333 14.8758 6.2 14.9592 6.2H17.2092C17.2925 6.2 17.3592 6.23333 17.4092 6.3C17.4592 6.35 17.4758 6.41667 17.4592 6.5L15.9592 18.7C15.9425 18.7833 15.9008 18.8583 15.8342 18.925C15.7842 18.975 15.7175 19 15.6342 19H13.3842ZM18.9727 19C18.7893 19 18.6977 18.9 18.6977 18.7L20.7727 1.8C20.7893 1.71667 20.831 1.65 20.8977 1.6C20.9643 1.53333 21.0393 1.5 21.1227 1.5H23.3477C23.431 1.5 23.4977 1.53333 23.5477 1.6C23.5977 1.65 23.6143 1.71667 23.5977 1.8L22.4977 10.75C22.4977 10.85 22.5477 10.8667 22.6477 10.8L26.4477 6.4C26.5643 6.28333 26.6977 6.225 26.8477 6.225H29.2977C29.431 6.225 29.4977 6.275 29.4977 6.375C29.4977 6.45833 29.4643 6.53333 29.3977 6.6L26.1227 10.475C26.0893 10.5417 26.081 10.6 26.0977 10.65L28.3727 18.65L28.3977 18.75C28.3977 18.8167 28.3643 18.875 28.2977 18.925C28.2477 18.975 28.181 19 28.0977 19H25.7727C25.606 19 25.506 18.9167 25.4727 18.75L23.9977 12.775C23.981 12.675 23.931 12.6667 23.8477 12.75L22.0477 14.775C22.0143 14.8417 21.9977 14.8917 21.9977 14.925L21.5227 18.7C21.506 18.7833 21.4643 18.8583 21.3977 18.925C21.3477 18.975 21.281 19 21.1977 19H18.9727ZM40.0363 10.175C40.0363 11.0583 39.9363 12.15 39.7363 13.45C39.7197 13.65 39.603 13.75 39.3863 13.75H32.8863C32.853 13.75 32.8197 13.7667 32.7863 13.8C32.7697 13.8167 32.7613 13.8417 32.7613 13.875C32.7447 14.125 32.7363 14.4667 32.7363 14.9C32.753 15.45 32.9197 15.8917 33.2363 16.225C33.5697 16.5583 34.0197 16.725 34.5863 16.725C35.0697 16.7083 35.4947 16.5833 35.8613 16.35C36.228 16.1167 36.5197 15.7917 36.7363 15.375C36.853 15.1917 36.9863 15.125 37.1363 15.175L39.0613 15.6C39.2447 15.65 39.303 15.775 39.2363 15.975C38.7697 17.0083 38.1113 17.8083 37.2613 18.375C36.4113 18.925 35.4197 19.2 34.2863 19.2C32.8363 19.2 31.7447 18.8167 31.0113 18.05C30.2947 17.2667 29.9363 16.1833 29.9363 14.8C29.9363 14.2667 29.9947 13.5333 30.1113 12.6C30.1947 11.6167 30.3363 10.7583 30.5363 10.025C30.853 8.80833 31.478 7.84167 32.4113 7.125C33.3447 6.39167 34.453 6.025 35.7363 6.025C37.0863 6.025 38.1363 6.40833 38.8863 7.175C39.653 7.925 40.0363 8.925 40.0363 10.175ZM35.4613 8.525C34.9113 8.525 34.4363 8.69167 34.0363 9.025C33.653 9.34167 33.3947 9.775 33.2613 10.325L33.0363 11.575C33.0363 11.6583 33.078 11.7 33.1613 11.7H37.0113C37.0947 11.7 37.1363 11.6583 37.1363 11.575C37.1697 10.975 37.1863 10.55 37.1863 10.3C37.1863 9.76667 37.028 9.34167 36.7113 9.025C36.3947 8.69167 35.978 8.525 35.4613 8.525ZM46.3885 19C46.3051 19 46.2385 18.975 46.1885 18.925C46.1385 18.8583 46.1218 18.7833 46.1385 18.7L48.2135 1.8C48.2135 1.71667 48.2468 1.65 48.3135 1.6C48.3801 1.53333 48.4551 1.5 48.5385 1.5H50.7635C50.8468 1.5 50.9135 1.53333 50.9635 1.6C51.0135 1.65 51.0301 1.71667 51.0135 1.8L48.9385 18.7C48.9218 18.7833 48.8801 18.8583 48.8135 18.925C48.7635 18.975 48.6968 19 48.6135 19H46.3885ZM56.0607 19.2C54.7607 19.2 53.7274 18.8417 52.9607 18.125C52.2107 17.3917 51.8274 16.4083 51.8107 15.175C51.7774 14.3917 51.8191 13.5333 51.9357 12.6C52.0357 11.7167 52.2024 10.8417 52.4357 9.975C52.7691 8.75833 53.4024 7.8 54.3357 7.1C55.2857 6.38333 56.4107 6.025 57.7107 6.025C58.9941 6.025 60.0107 6.38333 60.7607 7.1C61.5107 7.8 61.9024 8.75 61.9357 9.95C61.9691 10.7667 61.9274 11.6417 61.8107 12.575C61.6941 13.525 61.5274 14.3833 61.3107 15.15C60.9941 16.4 60.3607 17.3917 59.4107 18.125C58.4774 18.8417 57.3607 19.2 56.0607 19.2ZM56.3857 16.7C56.9191 16.7 57.3857 16.5167 57.7857 16.15C58.1857 15.7833 58.4691 15.3 58.6357 14.7C58.8191 13.7 58.9357 13 58.9857 12.6C59.0357 12.2667 59.0774 11.75 59.1107 11.05L59.1607 10.475C59.1441 9.89167 58.9774 9.425 58.6607 9.075C58.3441 8.70833 57.9191 8.525 57.3857 8.525C56.8357 8.525 56.3607 8.7 55.9607 9.05C55.5607 9.4 55.2857 9.875 55.1357 10.475C54.9857 11.1083 54.8607 11.8167 54.7607 12.6C54.6607 13.5667 54.6107 14.2667 54.6107 14.7C54.6107 15.3 54.7691 15.7833 55.0857 16.15C55.4024 16.5167 55.8357 16.7 56.3857 16.7ZM71.426 6.525C71.4426 6.44167 71.476 6.375 71.526 6.325C71.5926 6.25833 71.6676 6.225 71.751 6.225H73.976C74.1593 6.225 74.251 6.325 74.251 6.525L72.801 18.325C72.5676 20.2583 71.8843 21.6917 70.751 22.625C69.6176 23.575 68.0843 24.05 66.151 24.05C65.9343 24.05 65.576 24.0333 65.076 24C64.9093 23.9833 64.826 23.875 64.826 23.675L65.151 21.675C65.1843 21.4583 65.301 21.3667 65.501 21.4C65.6676 21.4167 65.9093 21.425 66.226 21.425C67.4426 21.425 68.3426 21.1667 68.926 20.65C69.5093 20.1333 69.8676 19.3 70.001 18.15L70.026 17.925C70.0426 17.875 70.0343 17.8417 70.001 17.825C69.9676 17.8083 69.9343 17.825 69.901 17.875C69.201 18.6083 68.301 18.975 67.201 18.975C66.151 18.975 65.301 18.6583 64.651 18.025C64.001 17.375 63.6593 16.4583 63.626 15.275C63.5926 14.6417 63.6593 13.7417 63.826 12.575C64.0093 11.1583 64.1926 10.2083 64.376 9.725C64.6593 8.59167 65.1843 7.69167 65.951 7.025C66.7176 6.35833 67.6343 6.025 68.701 6.025C69.8176 6.025 70.651 6.4 71.201 7.15C71.2343 7.18333 71.2676 7.2 71.301 7.2C71.3343 7.18333 71.351 7.15 71.351 7.1L71.426 6.525ZM70.351 14.75C70.4676 14.2 70.576 13.475 70.676 12.575C70.776 11.8583 70.8426 11.1083 70.876 10.325C70.876 9.79167 70.726 9.35833 70.426 9.025C70.126 8.69167 69.7176 8.525 69.201 8.525C68.6843 8.525 68.2343 8.69167 67.851 9.025C67.4676 9.35833 67.201 9.79167 67.051 10.325C66.901 10.8583 66.7593 11.6083 66.626 12.575C66.526 13.5417 66.4843 14.2667 66.501 14.75C66.5176 15.2667 66.676 15.7 66.976 16.05C67.2926 16.3833 67.7093 16.55 68.226 16.55C68.7593 16.55 69.2093 16.3833 69.576 16.05C69.9593 15.7167 70.2176 15.2833 70.351 14.75ZM79.7912 19.2C78.4912 19.2 77.4579 18.8417 76.6912 18.125C75.9412 17.3917 75.5579 16.4083 75.5412 15.175C75.5079 14.3917 75.5495 13.5333 75.6662 12.6C75.7662 11.7167 75.9329 10.8417 76.1662 9.975C76.4995 8.75833 77.1329 7.8 78.0662 7.1C79.0162 6.38333 80.1412 6.025 81.4412 6.025C82.7245 6.025 83.7412 6.38333 84.4912 7.1C85.2412 7.8 85.6329 8.75 85.6662 9.95C85.6995 10.7667 85.6579 11.6417 85.5412 12.575C85.4245 13.525 85.2579 14.3833 85.0412 15.15C84.7245 16.4 84.0912 17.3917 83.1412 18.125C82.2079 18.8417 81.0912 19.2 79.7912 19.2ZM80.1162 16.7C80.6495 16.7 81.1162 16.5167 81.5162 16.15C81.9162 15.7833 82.1995 15.3 82.3662 14.7C82.5495 13.7 82.6662 13 82.7162 12.6C82.7662 12.2667 82.8079 11.75 82.8412 11.05L82.8912 10.475C82.8745 9.89167 82.7079 9.425 82.3912 9.075C82.0745 8.70833 81.6495 8.525 81.1162 8.525C80.5662 8.525 80.0912 8.7 79.6912 9.05C79.2912 9.4 79.0162 9.875 78.8662 10.475C78.7162 11.1083 78.5912 11.8167 78.4912 12.6C78.3912 13.5667 78.3412 14.2667 78.3412 14.7C78.3412 15.3 78.4995 15.7833 78.8162 16.15C79.1329 16.5167 79.5662 16.7 80.1162 16.7Z" fill="white"/>
</svg>
